<?xml version="1.0" encoding="UTF-8" standalone="no"?>
<!DOCTYPE svg PUBLIC "-//W3C//DTD SVG 1.1//EN" "http://www.w3.org/Graphics/SVG/1.1/DTD/svg11.dtd">
<svg width="100%" height="100%" viewBox="0 0 1540 870" version="1.1" xmlns="http://www.w3.org/2000/svg" xmlns:xlink="http://www.w3.org/1999/xlink" xml:space="preserve" xmlns:serif="http://www.serif.com/" style="fill-rule:evenodd;clip-rule:evenodd;stroke-linejoin:round;stroke-miterlimit:2;">
    <g transform="matrix(1,0,0,1,-104.089,-222.591)">
        <g transform="matrix(0.959198,0,0,0.999236,21.2787,0.170148)">
            <rect x="128.698" y="222.591" width="1488.28" height="841.725"/>
        </g>
        <g id="Bright-Blue" serif:id="Bright Blue">
            <g transform="matrix(5.24778,0,0,5.24778,-5768.01,-3984.41)">
                <path d="M1212.22,801.673L1118.97,801.673L1118.97,967.409L1412.4,967.409L1412.4,801.673L1319.15,801.673L1265.69,931.594L1212.22,801.673ZM1282.75,946.576L1332.74,822.506C1332.74,822.506 1391.57,822.506 1391.57,822.506C1391.57,822.506 1391.57,946.576 1391.57,946.576C1391.57,946.576 1282.75,946.576 1282.75,946.576ZM1248.62,946.576C1248.62,946.576 1167.28,946.576 1139.8,946.576C1139.8,946.576 1139.8,822.506 1139.8,822.506L1198.63,822.506L1248.62,946.576Z" style="fill:rgb(27,160,255);"/>
            </g>
            <g transform="matrix(1,0,0,1,0.118607,-109.357)">
                <path d="M103.996,1092.7L148.267,1092.7L247.73,846.491L347.197,1092.7L391.469,1092.7L286.093,831.924C280.229,816.458 265.252,805.461 247.73,805.461C230.13,805.461 215.112,816.54 209.289,832.092L103.996,1092.7ZM1413.99,805.455L1188.32,805.455L1188.32,846.446L1280.66,846.446L1280.66,1092.7L1321.65,1092.7L1321.65,846.446L1413.99,846.446L1413.99,805.455ZM921.135,1092.7L965.407,1092.7L1064.87,846.491L1164.34,1092.7L1208.61,1092.7L1103.23,831.924C1097.37,816.458 1082.39,805.461 1064.87,805.461C1047.27,805.461 1032.25,816.54 1026.43,832.092L921.135,1092.7ZM514.786,1051.7L473.73,1051.7L473.73,866.973L432.739,866.973L432.739,1092.7L514.786,1092.7C594.143,1092.7 658.413,1028.43 658.413,949.08C658.413,869.731 594.143,805.464 514.786,805.464L442.987,805.464L432.739,846.455L514.786,846.455C571.48,846.455 617.422,892.392 617.422,949.08C617.422,1005.77 571.48,1051.7 514.786,1051.7ZM773.351,969.571L814.409,969.571C837.07,969.571 855.464,987.969 855.464,1010.63C855.464,1033.3 837.07,1051.7 814.409,1051.7L711.797,1051.7L701.549,1092.69L814.409,1092.69C859.772,1092.69 896.459,1056 896.459,1010.63C896.459,965.304 859.772,928.576 814.409,928.576L773.351,928.576C750.686,928.576 732.296,910.182 732.296,887.513C732.296,864.848 750.686,846.45 773.351,846.45L875.964,846.45L886.211,805.459L773.351,805.459C727.988,805.459 691.302,842.187 691.302,887.513C691.302,932.884 727.988,969.571 773.351,969.571ZM1520.72,969.571L1561.78,969.571C1584.44,969.571 1602.83,987.969 1602.83,1010.63C1602.83,1033.3 1584.44,1051.7 1561.78,1051.7L1459.17,1051.7L1448.92,1092.69L1561.78,1092.69C1607.14,1092.69 1643.83,1056 1643.83,1010.63C1643.83,965.304 1607.14,928.576 1561.78,928.576L1520.72,928.576C1498.06,928.576 1479.66,910.182 1479.66,887.513C1479.66,864.848 1498.06,846.45 1520.72,846.45L1623.33,846.45L1633.58,805.459L1520.72,805.459C1475.36,805.459 1438.67,842.187 1438.67,887.513C1438.67,932.884 1475.36,969.571 1520.72,969.571Z" style="fill:white;"/>
            </g>
        </g>
    </g>
</svg>
