<?xml version="1.0" encoding="UTF-8"?>
<svg width="206px" height="160px" viewBox="0 0 206 160" version="1.1" xmlns="http://www.w3.org/2000/svg" xmlns:xlink="http://www.w3.org/1999/xlink">
    <!-- Generator: Sketch 43.1 (39012) - http://www.bohemiancoding.com/sketch -->
    <title>ADSATS-Logo</title>
    <desc>Created with Sketch.</desc>
    <defs></defs>
    <g id="Page-1" stroke="none" stroke-width="1" fill="none" fill-rule="evenodd">
        <g id="ADSATS-Logo" transform="translate(-3.000000, -1.000000)">
            <g id="ADSATS" transform="translate(61.000000, 74.000000)" fill="#364DE1">
                <path d="M8.26171875,21.6328125 L12.5976563,21.6328125 L10.4296875,8.33203125 L8.26171875,21.6328125 Z M0.7421875,33 L7.32421875,0.6171875 L13.4765625,0.6171875 L20.0390625,33 L14.5507813,33 L13.2421875,25.4804688 L7.63671875,25.4804688 L6.30859375,33 L0.7421875,33 Z M23.2226562,33 L23.2226562,0.6171875 L30.7617188,0.6171875 C32.7148535,0.6171875 34.3489518,0.812498047 35.6640625,1.203125 C36.9791732,1.59375195 38.0338502,2.21223535 38.828125,3.05859375 C39.6223998,3.90495215 40.1855452,4.94335322 40.5175781,6.17382813 C40.849611,7.40430303 41.015625,8.91795977 41.015625,10.7148438 L41.015625,22.3945312 C41.015625,24.2434988 40.8463559,25.8124936 40.5078125,27.1015625 C40.1692691,28.3906314 39.6126341,29.4843705 38.8378906,30.3828125 C38.0631472,31.2812545 37.0312564,31.9420552 35.7421875,32.3652344 C34.4531186,32.7884136 32.8711031,33 30.9960938,33 L23.2226562,33 Z M29.1210938,28.859375 L30.8007813,28.859375 C31.3867217,28.859375 31.9010395,28.8072922 32.34375,28.703125 C32.7864605,28.5989578 33.1575506,28.4752611 33.4570312,28.3320312 C33.7565119,28.1888014 34.0071604,27.9544287 34.2089844,27.6289062 C34.4108083,27.3033838 34.5638016,27.0039076 34.6679688,26.7304688 C34.7721359,26.4570299 34.8502602,26.0436226 34.9023438,25.4902344 C34.9544273,24.9368462 34.9869791,24.4648457 35,24.0742188 C35.0130209,23.6835918 35.0195312,23.1041705 35.0195312,22.3359375 L35.0195312,10.5 C35.0195312,9.73176699 35.0065105,9.11328359 34.9804688,8.64453125 C34.954427,8.17577891 34.8925786,7.70377842 34.7949219,7.22851563 C34.6972651,6.75325283 34.5540374,6.38541797 34.3652344,6.125 C34.1764313,5.86458203 33.9257828,5.6269542 33.6132812,5.41210938 C33.3007797,5.19726455 32.9101586,5.04752646 32.4414062,4.96289062 C31.9726539,4.87825479 31.4062533,4.8359375 30.7421875,4.8359375 L29.1210938,4.8359375 L29.1210938,28.859375 Z M53.515625,33.390625 C47.8124715,33.390625 44.8177098,30.0963871 44.53125,23.5078125 L49.6679688,22.4335938 C49.7981777,26.7174693 51.0221238,28.859375 53.3398438,28.859375 C54.2382857,28.859375 54.9055968,28.5859402 55.3417969,28.0390625 C55.777997,27.4921848 55.9960938,26.756515 55.9960938,25.8320312 C55.9960938,24.9335893 55.833335,24.1100298 55.5078125,23.3613281 C55.18229,22.6126265 54.8046896,22.0006534 54.375,21.5253906 C53.9453104,21.0501278 53.3333373,20.460941 52.5390625,19.7578125 L48.28125,16.0664062 C47.0312438,14.9726508 46.1002635,13.8365944 45.4882812,12.6582031 C44.876299,11.4798118 44.5703125,10.0052172 44.5703125,8.234375 C44.5703125,5.7213416 45.3092374,3.76823613 46.7871094,2.375 C48.2649813,0.981763867 50.2929559,0.272135547 52.8710938,0.24609375 C54.0559955,0.233072852 55.1041621,0.379555762 56.015625,0.685546875 C56.9270879,0.991537988 57.6790335,1.40169014 58.2714844,1.91601563 C58.8639353,2.43034111 59.358722,3.07161074 59.7558594,3.83984375 C60.1529968,4.60807676 60.4492178,5.40559482 60.6445312,6.23242188 C60.8398447,7.05924893 60.9765621,7.98046367 61.0546875,8.99609375 L56.015625,9.9921875 C55.9895832,9.34114258 55.9472659,8.77474199 55.8886719,8.29296875 C55.8300778,7.81119551 55.7291674,7.32291914 55.5859375,6.828125 C55.4427076,6.33333086 55.2571626,5.93294424 55.0292969,5.62695313 C54.8014312,5.32096201 54.4954446,5.07682383 54.1113281,4.89453125 C53.7272116,4.71223867 53.2812525,4.6406248 52.7734375,4.6796875 C51.9010373,4.73177109 51.2337263,5.02148174 50.7714844,5.54882813 C50.3092425,6.07617451 50.078125,6.78254766 50.078125,7.66796875 C50.078125,8.70964063 50.2832011,9.56575186 50.6933594,10.2363281 C51.1035177,10.9069044 51.7447873,11.6262982 52.6171875,12.3945313 L56.8359375,16.0664062 C57.539066,16.7044303 58.1510391,17.3229137 58.671875,17.921875 C59.1927109,18.5208363 59.6907528,19.2044232 60.1660156,19.9726562 C60.6412784,20.7408893 61.0026029,21.587235 61.25,22.5117188 C61.4973971,23.4362025 61.6210938,24.4127553 61.6210938,25.4414062 C61.6210938,27.7981889 60.8756585,29.7122322 59.3847656,31.1835938 C57.8938728,32.6549553 55.9375121,33.390625 53.515625,33.390625 Z M70.9179688,21.6328125 L75.2539062,21.6328125 L73.0859375,8.33203125 L70.9179688,21.6328125 Z M63.3984375,33 L69.9804688,0.6171875 L76.1328125,0.6171875 L82.6953125,33 L77.2070313,33 L75.8984375,25.4804688 L70.2929688,25.4804688 L68.9648438,33 L63.3984375,33 Z M87.9101562,33 L87.9101562,4.97265625 L82.4804688,4.97265625 L82.4804688,0.6171875 L99.0625,0.6171875 L99.0625,4.97265625 L93.8085938,4.97265625 L93.8085938,33 L87.9101562,33 Z M109.804688,33.390625 C104.101534,33.390625 101.106772,30.0963871 100.820313,23.5078125 L105.957031,22.4335938 C106.08724,26.7174693 107.311186,28.859375 109.628906,28.859375 C110.527348,28.859375 111.194659,28.5859402 111.630859,28.0390625 C112.067059,27.4921848 112.285156,26.756515 112.285156,25.8320312 C112.285156,24.9335893 112.122397,24.1100298 111.796875,23.3613281 C111.471353,22.6126265 111.093752,22.0006534 110.664063,21.5253906 C110.234373,21.0501278 109.6224,20.460941 108.828125,19.7578125 L104.570313,16.0664062 C103.320306,14.9726508 102.389326,13.8365944 101.777344,12.6582031 C101.165362,11.4798118 100.859375,10.0052172 100.859375,8.234375 C100.859375,5.7213416 101.5983,3.76823613 103.076172,2.375 C104.554044,0.981763867 106.582018,0.272135547 109.160156,0.24609375 C110.345058,0.233072852 111.393225,0.379555762 112.304688,0.685546875 C113.21615,0.991537988 113.968096,1.40169014 114.560547,1.91601563 C115.152998,2.43034111 115.647784,3.07161074 116.044922,3.83984375 C116.442059,4.60807676 116.73828,5.40559482 116.933594,6.23242188 C117.128907,7.05924893 117.265625,7.98046367 117.34375,8.99609375 L112.304688,9.9921875 C112.278646,9.34114258 112.236328,8.77474199 112.177734,8.29296875 C112.11914,7.81119551 112.01823,7.32291914 111.875,6.828125 C111.73177,6.33333086 111.546225,5.93294424 111.318359,5.62695313 C111.090494,5.32096201 110.784507,5.07682383 110.400391,4.89453125 C110.016274,4.71223867 109.570315,4.6406248 109.0625,4.6796875 C108.1901,4.73177109 107.522789,5.02148174 107.060547,5.54882813 C106.598305,6.07617451 106.367188,6.78254766 106.367188,7.66796875 C106.367188,8.70964063 106.572264,9.56575186 106.982422,10.2363281 C107.39258,10.9069044 108.03385,11.6262982 108.90625,12.3945313 L113.125,16.0664062 C113.828129,16.7044303 114.440102,17.3229137 114.960938,17.921875 C115.481773,18.5208363 115.979815,19.2044232 116.455078,19.9726562 C116.930341,20.7408893 117.291665,21.587235 117.539063,22.5117188 C117.78646,23.4362025 117.910156,24.4127553 117.910156,25.4414062 C117.910156,27.7981889 117.164721,29.7122322 115.673828,31.1835938 C114.182935,32.6549553 112.226575,33.390625 109.804688,33.390625 Z"></path>
            </g>
            <ellipse id="Oval" stroke="#B425F9" stroke-width="3" cx="120.5" cy="82.5" rx="72.5" ry="72.5"></ellipse>
            <circle id="Oval" stroke="#B425F9" cx="120.5" cy="82.5" r="77.5"></circle>
            <rect id="Rectangle-8-Copy" fill="#FFFFFF" fill-rule="nonzero" transform="translate(169.195326, 32.368374) rotate(-118.000000) translate(-169.195326, -32.368374) " x="146.695326" y="7.86837394" width="45" height="49"></rect>
            <rect id="Rectangle-8-Copy" fill="#FFFFFF" fill-rule="nonzero" transform="translate(48.847663, 62.000000) rotate(-5.000000) translate(-48.847663, -62.000000) " x="36.6953262" y="58" width="24.3046738" height="8"></rect>
            <path d="M107.758745,65.3599124 C107.758452,65.3599124 107.758159,65.3593262 107.757866,65.3593262 C107.724747,65.3593262 107.162907,66.4065112 106.034245,67.2960177 C105.157049,67.9874001 104.191634,68.3830619 103.800661,68.5410336 C103.682549,68.588513 103.616898,68.6148904 103.621588,68.620459 C103.622467,68.6216313 103.625984,68.6222175 103.631552,68.6222175 C103.75963,68.6222175 105.070003,68.337341 106.163495,67.4750913 C106.448078,67.2505898 106.691044,67.0085034 106.895323,66.7711063 C107.348136,66.3669451 107.691336,65.8936163 107.941336,65.35493 C107.821172,65.4917997 107.669648,65.7080948 107.471524,65.9680593 C107.677561,65.6181184 107.76783,65.3713426 107.758745,65.3599124 L107.758745,65.3599124 Z M99.3926952,61.0463192 C99.3648524,61.027855 99.3258723,61.0193556 99.2789791,61.0193556 C99.0916991,61.0193556 98.7810313,61.1612076 98.5752872,61.4158966 C98.3179604,61.7347708 98.3220636,62.1093306 98.4603987,62.2007725 C98.496741,62.2248053 98.5855451,62.2374078 98.701899,62.2374078 C99.0286863,62.2374078 99.5708896,62.1365873 99.7605142,61.9015349 C100.018134,61.5826608 99.5307372,61.137761 99.3926952,61.0463192 L99.3926952,61.0463192 Z M99.307115,63.9100316 C99.3449227,63.9129624 99.3824373,63.9141348 99.4196588,63.9141348 C100.224464,63.9141348 100.90471,63.2913337 100.963326,62.4759773 C100.980618,62.2321323 100.940759,61.9982522 100.855179,61.7857672 C100.922881,61.9665993 100.953654,62.1641371 100.939,62.369002 C100.886832,63.0955544 100.281322,63.6500671 99.5641487,63.6500671 C99.5307372,63.6500671 99.4973258,63.6488948 99.4633282,63.6468432 C98.7027782,63.5923298 98.1306805,62.9311349 98.1851939,62.170878 C98.2373627,61.4446188 98.8428718,60.8892268 99.5600455,60.8892268 C99.593457,60.8892268 99.6271615,60.8903991 99.660866,60.8933299 C99.9929289,60.9167766 100.288943,61.0565771 100.512565,61.268769 C100.258462,61.0146662 99.9152619,60.847609 99.5289787,60.8194731 C99.4914641,60.8171284 99.4542426,60.8153699 99.4170211,60.8153699 C98.6116295,60.8153699 97.9313842,61.4381709 97.8727676,62.2541136 C97.8115133,63.1075708 98.4539509,63.8487773 99.307115,63.9100316 L99.307115,63.9100316 Z M97.8129787,62.2494242 C97.8733538,61.4027079 98.5802696,60.7552879 99.4164349,60.7552879 C99.4551219,60.7552879 99.4941019,60.7570464 99.533375,60.7599772 C100.419657,60.8235762 101.087007,61.594091 101.023408,62.4800804 C100.962447,63.3273829 100.256117,63.9748029 99.4199519,63.9748029 C99.381265,63.9748029 99.3419919,63.9730444 99.3030119,63.9701136 C98.4164363,63.9065146 97.7490867,63.1359998 97.8129787,62.2494242 L97.8129787,62.2494242 Z M100.773702,55.9314374 C100.73648,55.8364786 100.438415,55.763501 100.004066,55.763501 C99.5152039,55.763501 98.8534228,55.8561152 98.1966242,56.1146142 C96.9557114,56.6023041 96.384786,57.7066402 96.4642115,57.9091604 C96.4721247,57.9293832 96.4853134,57.9390549 96.5040708,57.9390549 C96.6702487,57.9390549 97.2652069,57.1864182 98.3812663,56.7473801 C99.621886,56.2596902 100.85342,56.1342508 100.773702,55.9314374 L100.773702,55.9314374 Z M99.2950986,64.0770888 C99.3367164,64.0806058 99.3783342,64.0817781 99.4196588,64.0817781 C100.311803,64.0817781 101.065319,63.3918611 101.13009,62.4877006 C101.198086,61.5419223 100.48648,60.7204111 99.5409951,60.653002 C99.4990843,60.649485 99.4571735,60.6483127 99.4158488,60.6483127 C98.5237046,60.6483127 97.7707748,61.3382297 97.7057104,62.2420972 C97.6380083,63.1875824 98.3496134,64.0090936 99.2950986,64.0770888 L99.2950986,64.0770888 Z M99.2912886,57.3499584 C99.3329063,57.3487861 99.3745241,57.3481999 99.4161419,57.3481999 C99.5360127,57.3481999 99.6567629,57.3523031 99.7780992,57.3608025 C102.54656,57.5600988 104.629792,59.9654297 104.431082,62.7341832 C104.241165,65.3801351 102.035423,67.4000621 99.423762,67.4000621 C99.3027188,67.4000621 99.1810894,67.396252 99.0582877,67.3868733 C98.7713596,67.3663575 98.4920517,67.3218089 98.2218293,67.2558653 C98.2877729,67.3004139 98.3545958,67.3440832 98.422591,67.3862872 L98.4228841,67.3862872 C98.6506095,67.4337666 98.8844896,67.4677642 99.123059,67.484763 C99.2496708,67.4941417 99.3748172,67.4979517 99.4996705,67.4979517 C102.198084,67.4979517 104.478269,65.4103227 104.674341,62.6770321 C104.878327,59.8367663 102.755528,57.3660779 99.9246406,57.1313186 C99.9003147,57.1386457 99.8756957,57.1445073 99.8513699,57.1515413 C99.8033043,57.1661954 99.7552387,57.1805565 99.7077593,57.1960899 C99.7039492,57.1972622 99.7004322,57.1984346 99.6966221,57.1999 C99.586423,57.2362422 99.4782754,57.2763946 99.3710071,57.3191847 C99.3446296,57.3294426 99.3173729,57.3391143 99.2912886,57.3499584 L99.2912886,57.3499584 Z M108.589342,60.4399308 C108.565309,60.4405169 108.537173,60.4416893 108.504348,60.4428616 C108.393855,60.4469648 108.303,60.4824278 108.230608,60.5360619 C107.308863,58.1931577 105.033954,56.4481425 102.262269,56.2491392 C102.087299,56.2365367 101.913208,56.2303819 101.740582,56.2303819 C98.617198,56.2303819 95.9278699,58.2538259 95.1412355,61.0829545 C95.0852567,61.3426259 95.0987385,61.5756268 95.1438733,61.6403981 C95.0873083,61.9396357 95.0538969,62.2464934 95.0453975,62.559799 C95.0418805,62.6823076 95.0465698,62.8007131 95.047449,62.9214632 C95.0515522,63.0313692 95.0582931,63.1412753 95.0682579,63.250009 C95.2640373,63.306574 95.4847286,63.37369 95.7332629,63.4522362 C95.7051269,63.1647219 95.6922313,62.8728114 95.6936967,62.5797286 C95.6936967,62.6524131 95.6989722,62.7239253 95.7016099,62.7960237 C95.698386,62.705168 95.6931105,62.6140193 95.6942829,62.5214051 C95.7036615,61.7324261 95.882149,60.9841856 96.1925237,60.3039403 C96.1778695,60.3361794 96.16175,60.3660739 96.147682,60.3977268 C96.16175,60.3660739 96.1778695,60.3355933 96.1925237,60.3039403 L96.1925237,60.3036473 C96.1928168,60.3033542 96.1928168,60.3030611 96.1931099,60.3024749 C96.2162634,60.2523578 96.2400031,60.2025337 96.2646221,60.1527096 C96.2830863,60.115195 96.2994989,60.0765081 96.3188424,60.0392865 C96.3000851,60.0753357 96.2845517,60.1128503 96.2663806,60.1491926 C96.3059468,60.069181 96.3478576,59.9900486 96.3912339,59.9120886 C96.39182,59.9112093 96.3924062,59.910037 96.3929924,59.9088647 C96.4187836,59.8622645 96.4445749,59.8153712 96.4715386,59.7696503 C96.4861927,59.7450314 96.4993814,59.7195332 96.5143287,59.6952073 C96.5002607,59.7177747 96.4885374,59.7415144 96.4747625,59.7646679 C96.5237073,59.6826047 96.575583,59.6023 96.628631,59.5228746 C96.621597,59.5331325 96.614563,59.5439765 96.607529,59.5545275 C96.6154422,59.5425111 96.6233555,59.5304947 96.6315618,59.5184783 C96.6564738,59.4812568 96.6799205,59.442863 96.7057117,59.4062276 C96.7147973,59.3930389 96.7232967,59.3798501 96.7326754,59.3666614 C96.7247621,59.3775055 96.7180212,59.3889357 96.7104011,59.4000729 C96.7789825,59.3024763 96.8513739,59.2081036 96.925817,59.1151963 C96.9017842,59.1450908 96.8789237,59.1761576 96.8554771,59.2063451 C96.8924055,59.1582795 96.9275755,59.1090416 96.9659693,59.0621483 C96.9659693,59.0621483 96.9662624,59.0615622 96.9665555,59.0615622 C96.9689001,59.0583383 96.9712448,59.0554074 96.9738825,59.0524766 C96.9744687,59.0518904 96.9747618,59.0513043 96.975348,59.0507181 C96.9771065,59.0483734 96.979158,59.0460288 96.9809165,59.0439772 C96.9820889,59.0428049 96.9832612,59.0413395 96.9841404,59.039874 C96.986192,59.0372363 96.9882436,59.0348916 96.9902952,59.0322539 C96.9911744,59.0313746 96.9923468,59.0302023 96.993226,59.02903 C96.9949845,59.0269784 96.996743,59.0249268 96.9985015,59.0225822 C97.0011392,59.0196513 97.0034839,59.0167205 97.0061217,59.0134966 C97.0064147,59.0134966 97.0070009,59.0129104 97.007294,59.0123243 C97.0131556,59.0055834 97.0193104,58.9979632 97.025172,58.9912223 C97.0254651,58.9912223 97.0254651,58.9909292 97.0254651,58.9906361 C97.0796854,58.9270372 97.1368366,58.8654898 97.1939878,58.8039424 C97.2142105,58.7822542 97.2332609,58.7593938 97.2537767,58.7377056 C97.3396499,58.6477292 97.428454,58.5609767 97.5198959,58.4765688 C97.5497903,58.449019 97.5811502,58.4238139 97.6113377,58.3968503 C97.6752298,58.3402853 97.7394149,58.2843065 97.8059447,58.2303792 C97.8452178,58.1987263 97.8859563,58.1682457 97.9264018,58.137472 C97.9861907,58.091458 98.0465657,58.0457371 98.1084062,58.0020677 C98.1526617,57.9704148 98.1975034,57.9402272 98.2426382,57.9103328 C98.3033063,57.8698873 98.3645606,57.8300281 98.4269873,57.7913411 C98.4741736,57.7623259 98.521653,57.7338969 98.5697186,57.706054 C98.6330245,57.6694187 98.6975027,57.6342487 98.762274,57.599665 C98.8109258,57.5738737 98.8592845,57.5477893 98.9088155,57.5231703 C98.9776899,57.4891727 99.0477367,57.4569336 99.1183697,57.4255738 C99.1652629,57.4044718 99.2118631,57.3821975 99.2596356,57.3619748 C99.2687212,57.3581647 99.2775137,57.3534754 99.2865992,57.3499584 C99.2912886,57.3479068 99.296271,57.3467345 99.3006672,57.344976 C99.3985569,57.3045305 99.4976189,57.2664298 99.5978532,57.2312598 C99.6312647,57.2195365 99.6652623,57.2101579 99.6986737,57.1990207 C99.7382399,57.185832 99.7780992,57.1732294 99.8182515,57.1606269 C99.8501975,57.1509551 99.8815574,57.1392318 99.9140896,57.1301463 C99.915555,57.1301463 99.9173135,57.1307324 99.9187789,57.1307324 C99.996739,57.108165 100.075285,57.0879423 100.154124,57.0683058 C100.208345,57.054824 100.262565,57.0416352 100.317372,57.0296188 C100.424347,57.0064653 100.532494,56.9871218 100.641228,56.9692438 C100.690466,56.9613305 100.739118,56.9516588 100.788649,56.9446248 C100.946914,56.9229367 101.106351,56.9059379 101.268425,56.8959731 L101.269012,56.8959731 C101.273994,56.8959731 101.278976,56.8953869 101.283666,56.8953869 C101.283959,56.8953869 101.284545,56.8950938 101.284838,56.8950938 C101.289527,56.8948007 101.294217,56.8948007 101.298906,56.8945077 L101.299785,56.8945077 C101.304182,56.8945077 101.308871,56.8939215 101.31356,56.8939215 C101.314439,56.8939215 101.315319,56.8939215 101.316198,56.8936284 C101.320594,56.8933353 101.32499,56.8933353 101.329387,56.8930422 C101.330559,56.8927492 101.331438,56.8927492 101.332611,56.8927492 C101.336421,56.8927492 101.339938,56.8924561 101.343748,56.892163 L101.346972,56.892163 C101.350782,56.892163 101.355178,56.8915768 101.358988,56.8915768 C101.360746,56.8915768 101.362212,56.8915768 101.36397,56.8912837 C101.367487,56.8909907 101.371297,56.8909907 101.375108,56.8909907 C101.376866,56.8909907 101.378625,56.8906976 101.38009,56.8904045 L101.388589,56.8904045 C101.390348,56.8904045 101.392399,56.8901114 101.394451,56.8898183 L101.405002,56.8898183 C101.407054,56.8895252 101.409105,56.8895252 101.411157,56.8892322 L101.418484,56.8892322 C101.422001,56.8889391 101.425225,56.8889391 101.428449,56.888646 L101.434603,56.888646 C101.436948,56.888646 101.439293,56.8883529 101.441637,56.8883529 C101.445154,56.8880598 101.448085,56.8880598 101.451602,56.8880598 C101.453947,56.8880598 101.456585,56.8880598 101.459222,56.8877668 C101.460688,56.8877668 101.462153,56.8874737 101.463912,56.8874737 L101.476221,56.8874737 C101.477687,56.8874737 101.479445,56.8871806 101.481204,56.8871806 C101.483548,56.8868875 101.486186,56.8868875 101.488824,56.8868875 L101.494099,56.8868875 C101.498202,56.8868875 101.502306,56.8865944 101.506409,56.8865944 C101.507581,56.8865944 101.509046,56.8863013 101.510219,56.8863013 L101.52458,56.8863013 L101.527804,56.8863013 C101.530735,56.8863013 101.533372,56.8860083 101.536303,56.8860083 C101.537475,56.8860083 101.538648,56.8860083 101.539527,56.8857152 L101.553302,56.8857152 L101.557698,56.8857152 C101.562681,56.8857152 101.567077,56.8857152 101.571473,56.8854221 L101.57499,56.8854221 L101.583196,56.8854221 C101.584662,56.885129 101.586127,56.885129 101.587593,56.885129 L101.600195,56.885129 L101.605178,56.885129 L101.617194,56.885129 L101.622763,56.885129 L101.63009,56.885129 L101.635658,56.885129 L101.641227,56.885129 L101.645037,56.885129 L101.657053,56.885129 L101.663208,56.885129 L101.676397,56.885129 L101.681965,56.885129 L101.695447,56.885129 C101.697206,56.885129 101.698964,56.8854221 101.700723,56.8854221 C101.705412,56.8854221 101.710394,56.8854221 101.715084,56.8857152 L101.717135,56.8857152 L101.717428,56.8857152 L101.766959,56.8863013 C101.769011,56.8871806 101.771062,56.8880598 101.773407,56.8892322 C105.035419,56.9572274 107.641219,59.5299086 107.603704,62.662671 C107.600187,62.9695288 107.583188,63.2626116 107.551535,63.5425057 C107.715662,63.5214038 107.872168,63.4991295 108.021054,63.4768552 C107.814138,64.4997143 107.342567,65.7447302 106.644444,66.4601454 C106.043331,67.0756194 105.297142,67.6629574 104.400016,68.0304833 C103.600779,68.2461922 102.664086,68.3842342 101.573232,68.4413854 C101.342282,68.4534018 101.118367,68.4595565 100.902072,68.4595565 C96.6693695,68.4595565 95.1699577,66.1872853 95.0492075,63.2444405 C94.3677899,63.0474888 93.9891269,62.9712873 93.7795727,62.9460821 C93.7901236,62.786352 93.8050709,62.623691 93.8261728,62.4578061 C94.3481534,58.3546464 97.1101661,55.4252834 101.237066,55.4249903 C101.328507,55.4249903 101.420242,55.4264557 101.512856,55.4293865 C101.610453,55.4323174 101.708343,55.4370067 101.807112,55.4431614 C105.473578,55.675283 107.537174,57.5428069 108.589342,60.4399308 L108.589342,60.4399308 Z M96.3827345,59.9270358 C96.3853722,59.9220534 96.388303,59.917071 96.3912339,59.9120886 C96.3915269,59.9112093 96.39182,59.9106232 96.3924062,59.9097439 C96.3891823,59.9153125 96.3856653,59.9211741 96.3827345,59.9270358 L96.3827345,59.9270358 Z M108.146493,60.6151943 C108.159096,60.6002471 108.172578,60.585886 108.187232,60.5721111 C107.945146,59.987704 107.616893,59.4422768 107.216835,58.9516561 C107.613669,59.453707 107.929319,60.0134952 108.146493,60.6151943 L108.146493,60.6151943 Z M100.376281,56.5897015 C100.609282,56.541929 100.846386,56.5052936 101.0873,56.4803816 C101.090817,56.4797954 101.093748,56.4795024 101.096972,56.4795024 C101.342868,56.4542972 101.592575,56.4411085 101.844919,56.4411085 C101.874521,56.4411085 101.903829,56.4416947 101.93343,56.4416947 C102.153242,56.4443324 102.370124,56.4575211 102.584074,56.4792093 C102.5067,56.4707099 102.429913,56.460452 102.351366,56.4548834 C102.179034,56.442867 102.00758,56.4364192 101.837885,56.4364192 C101.337007,56.4364192 100.848145,56.4894672 100.376281,56.5897015 L100.376281,56.5897015 Z M100.373057,56.5899946 C100.37423,56.5897015 100.375109,56.5897015 100.376281,56.5897015 C100.374523,56.5897015 100.373057,56.5899946 100.371592,56.5902877 C100.372178,56.5902877 100.372471,56.5902877 100.373057,56.5899946 L100.373057,56.5899946 Z M103.249079,56.5768059 C103.042456,56.5360673 102.832315,56.5050006 102.618951,56.4827263 C102.832022,56.5058798 103.042749,56.5351881 103.249079,56.5768059 L103.249079,56.5768059 Z M153.695377,36.329764 C153.728495,36.3467628 153.765131,36.3549691 153.804697,36.3549691 C154.017475,36.3549691 154.310851,36.1169859 154.515423,35.7588386 C154.757509,35.3347478 154.7833,34.9024506 154.572867,34.7937168 C154.539749,34.776718 154.503406,34.7685117 154.464133,34.7685117 C154.250769,34.7685117 153.9571,35.006495 153.752821,35.3643491 C153.510735,35.7887331 153.484943,36.2210303 153.695377,36.329764 L153.695377,36.329764 Z M116.207444,48.0955746 C116.19279,48.0955746 116.17667,48.0979193 116.157913,48.1031948 C115.881243,48.1808617 115.816178,48.5158554 115.69279,49.1175545 C115.574971,49.6919969 115.44748,50.2854896 115.676671,50.2854896 C115.687222,50.2854896 115.698652,50.2840242 115.710962,50.2816795 C115.986459,50.2227699 115.994373,49.7476826 116.117761,49.1459835 C116.232649,48.5847299 116.409085,48.0955746 116.207444,48.0955746 L116.207444,48.0955746 Z M120.245539,46.7570653 C120.230006,46.7570653 120.212421,46.7599961 120.192784,46.7658578 C119.89765,46.8546619 119.834637,47.2365488 119.713887,47.9220696 C119.598412,48.5768166 119.47268,49.2523726 119.718283,49.2523726 C119.729714,49.2523726 119.742023,49.2509072 119.755212,49.2479764 C120.049174,49.1805673 120.048295,48.6392433 120.169338,47.9540156 C120.282175,47.3145089 120.461248,46.7570653 120.245539,46.7570653 L120.245539,46.7570653 Z M108.72416,50.4924061 C108.713023,50.4924061 108.70042,50.4947508 108.686059,50.4997332 C108.474746,50.5718315 108.433715,50.8827924 108.353996,51.4396498 C108.278381,51.9727675 108.195145,52.5222978 108.371874,52.5222978 C108.380081,52.5222978 108.389166,52.5211255 108.398545,52.5187808 C108.609271,52.4630951 108.60253,52.0228847 108.682249,51.4654411 C108.755813,50.9458052 108.879201,50.4924061 108.72416,50.4924061 L108.72416,50.4924061 Z M121.186921,46.4390704 C121.171388,46.4390704 121.15351,46.4420012 121.133873,46.448156 C120.839032,46.536667 120.776019,46.9182609 120.654976,47.6037816 C120.539501,48.2585287 120.413769,48.9343777 120.659665,48.9343777 C120.671096,48.9343777 120.683112,48.9329123 120.696301,48.9299815 C120.990556,48.8622793 120.989384,48.3212484 121.110427,47.6357276 C121.223264,46.9968071 121.40263,46.4390704 121.186921,46.4390704 L121.186921,46.4390704 Z M119.201871,47.1518479 C119.186338,47.1518479 119.169046,47.1544856 119.149116,47.1597611 C118.854568,47.2388935 118.791848,47.5815073 118.671684,48.196102 C118.556796,48.7840262 118.432236,49.3910008 118.677839,49.3910008 C118.689269,49.3910008 118.701579,49.3892423 118.714475,49.3868976 C119.00873,49.3262295 119.007264,48.8405912 119.127135,48.2257034 C119.239093,47.6521403 119.417873,47.1518479 119.201871,47.1518479 L119.201871,47.1518479 Z M109.48471,50.2679046 C109.472986,50.2679046 109.460091,50.2702493 109.445144,50.2755248 C109.22709,50.3482093 109.1843,50.6600495 109.102237,51.2204239 C109.024277,51.7555931 108.938403,52.3086405 109.120994,52.3086405 C109.129493,52.3086405 109.138579,52.3074681 109.148251,52.3045373 C109.366304,52.2491446 109.359563,51.8065895 109.441627,51.2462152 C109.518121,50.7236485 109.645319,50.2679046 109.48471,50.2679046 L109.48471,50.2679046 Z M117.370983,47.7368412 C117.355449,47.7368412 117.338158,47.739479 117.318228,47.7444614 C117.023387,47.8221283 116.961253,48.1574151 116.840796,48.7588211 C116.726494,49.3338496 116.60164,49.9270493 116.847537,49.9270493 C116.858967,49.9270493 116.870983,49.9255839 116.884172,49.9232392 C117.178134,49.8643296 117.176669,49.3892423 117.296247,48.7875432 C117.408204,48.2262896 117.586985,47.7368412 117.370983,47.7368412 L117.370983,47.7368412 Z M105.998489,51.2983839 C105.989111,51.2983839 105.977974,51.3007286 105.965664,51.305711 C105.78366,51.376637 105.747904,51.6805639 105.678736,52.2268703 C105.612792,52.7476785 105.540401,53.2863648 105.691925,53.2863648 C105.699252,53.2863648 105.706872,53.2848994 105.715078,53.2822616 C105.89679,53.2280413 105.891807,52.7969165 105.960682,52.2514893 C106.025453,51.7418182 106.131842,51.2983839 105.998489,51.2983839 L105.998489,51.2983839 Z M110.28336,50.032266 C110.271344,50.032266 110.257862,50.0349038 110.242622,50.0395931 C110.016655,50.1128638 109.972986,50.4264625 109.888578,50.9897677 C109.807394,51.5278678 109.719469,52.0832597 109.907921,52.0832597 C109.916714,52.0832597 109.926386,52.0820874 109.93635,52.0797428 C110.161731,52.024057 110.154404,51.5794503 110.239105,51.0161451 C110.317944,50.4906476 110.449538,50.032266 110.28336,50.032266 L110.28336,50.032266 Z M105.383895,51.4803883 C105.374516,51.4803883 105.363965,51.482733 105.352242,51.4877154 C105.177564,51.5583484 105.142981,51.861103 105.076744,52.4035993 C105.012852,52.922649 104.943684,53.4578183 105.089053,53.4578183 C105.095794,53.4578183 105.103121,53.4566459 105.111035,53.4540082 C105.285419,53.3997879 105.280729,52.9715938 105.347259,52.4282183 C105.409393,51.9223573 105.511679,51.4803883 105.383895,51.4803883 L105.383895,51.4803883 Z M106.637703,51.1087593 C106.627738,51.1087593 106.616308,51.111104 106.603412,51.1163795 C106.414081,51.1878917 106.377152,51.4935771 106.305347,52.0425212 C106.236766,52.5665534 106.161737,53.1072912 106.319415,53.1072912 C106.327035,53.1072912 106.334948,53.1061189 106.343741,53.1037742 C106.532486,53.0492608 106.527211,52.6160844 106.599016,52.0671402 C106.665546,51.5554176 106.776331,51.1087593 106.637703,51.1087593 L106.637703,51.1087593 Z M104.220942,51.8250538 C104.212443,51.8250538 104.202771,51.8271053 104.191927,51.8317947 C104.032197,51.9021346 104.000251,52.2016652 103.93841,52.7391791 C103.880087,53.2520741 103.815901,53.7813817 103.949254,53.7813817 C103.955409,53.7813817 103.962443,53.7805025 103.969477,53.7781578 C104.128914,53.7242306 104.125104,53.3001397 104.186651,52.7626258 C104.244095,52.2617472 104.338175,51.8250538 104.220942,51.8250538 L104.220942,51.8250538 Z M104.791867,51.6556519 C104.782782,51.6556519 104.772817,51.6577035 104.76168,51.6623928 C104.594329,51.7333188 104.560918,52.034608 104.497026,52.5741735 C104.436065,53.0899993 104.369242,53.6225308 104.508749,53.6225308 C104.515197,53.6225308 104.522231,53.6216516 104.529851,53.6190138 C104.696615,53.5650866 104.692219,53.1386511 104.756404,52.5982063 C104.816193,52.0952761 104.914376,51.6556519 104.791867,51.6556519 L104.791867,51.6556519 Z M115.179016,48.3807442 C115.166707,48.3807442 115.152639,48.383382 115.136519,48.3886575 C114.900588,48.4669106 114.843729,48.8021974 114.736168,49.4036033 C114.633296,49.9783388 114.521925,50.5718315 114.716825,50.5718315 C114.726203,50.5718315 114.735875,50.5706592 114.746426,50.5680215 C114.981185,50.5082326 114.989685,50.0331453 115.097246,49.4317393 C115.198067,48.8704857 115.350177,48.3807442 115.179016,48.3807442 L115.179016,48.3807442 Z M113.496428,48.9754093 C113.484118,48.9754093 113.47005,48.977754 113.454224,48.9830295 C113.218292,49.0612826 113.161727,49.3962763 113.053873,49.9982684 C112.951001,50.5730039 112.839629,51.1662035 113.034529,51.1662035 C113.043615,51.1662035 113.053579,51.1650312 113.06413,51.1621004 C113.29889,51.1026046 113.307682,50.6275173 113.415244,50.0258182 C113.515478,49.4648577 113.667588,48.9754093 113.496428,48.9754093 L113.496428,48.9754093 Z M114.318818,48.7057731 C114.306509,48.7057731 114.292148,48.7081178 114.276321,48.7133933 C114.040389,48.7919395 113.983824,49.1269331 113.87597,49.7286322 C113.773391,50.3030746 113.662313,50.8971535 113.85692,50.8971535 C113.866005,50.8971535 113.875677,50.8956881 113.886228,50.8930503 C114.120987,50.8335545 114.129487,50.3578811 114.237634,49.756182 C114.337869,49.1952214 114.489978,48.7057731 114.318818,48.7057731 L114.318818,48.7057731 Z M103.136535,52.1468587 C103.128915,52.1468587 103.120123,52.1492034 103.110158,52.1541858 C102.965082,52.2239395 102.935774,52.5199532 102.879209,53.0510193 C102.825575,53.5586388 102.766958,54.0823778 102.888001,54.0823778 C102.89357,54.0823778 102.899724,54.0812055 102.906172,54.0785677 C103.051248,54.0252266 103.048024,53.6064113 103.104296,53.0744659 C103.156758,52.579449 103.242631,52.1468587 103.136535,52.1468587 L103.136535,52.1468587 Z M107.998194,50.7069427 C107.987056,50.7069427 107.97504,50.7092874 107.961265,50.7139767 C107.757279,50.7860751 107.71742,51.0949844 107.640633,51.6497902 C107.567362,52.1793909 107.486764,52.7265766 107.657045,52.7265766 C107.664958,52.7265766 107.673751,52.7251112 107.682836,52.7224734 C107.886236,52.6676669 107.880081,52.2298012 107.956869,51.6749954 C108.028674,51.1577041 108.147373,50.7069427 107.998194,50.7069427 L107.998194,50.7069427 Z M107.303294,50.9118076 C107.292743,50.9118076 107.28102,50.9141523 107.267831,50.9194278 C107.071173,50.99094 107.032779,51.2983839 106.958336,51.8502589 C106.88741,52.3772218 106.809743,52.9211836 106.973869,52.9211836 C106.981782,52.9211836 106.989989,52.9197182 106.998781,52.9170804 C107.194854,52.8622739 107.188992,52.4270459 107.263435,51.875464 C107.332896,51.3608105 107.447491,50.9118076 107.303294,50.9118076 L107.303294,50.9118076 Z M111.124215,49.7849041 C111.111906,49.7849041 111.097838,49.7872488 111.082011,49.7922312 C110.848717,49.8655019 110.803876,50.180859 110.716537,50.7470951 C110.633594,51.288126 110.542153,51.8461557 110.737053,51.8461557 C110.746138,51.8461557 110.756103,51.8449834 110.766361,51.8426387 C110.999069,51.7866599 110.991449,51.3394155 111.078494,50.7734725 C111.159971,50.2450442 111.295376,49.7849041 111.124215,49.7849041 L111.124215,49.7849041 Z M129.148224,46.3485078 C129.163757,46.3485078 129.18017,46.3470424 129.198048,46.3438185 C129.598692,46.2717201 129.579935,45.6867268 129.723545,44.9463995 C129.857777,44.2550171 130.086089,43.6527318 129.789196,43.6527318 C129.768094,43.6527318 129.744354,43.6556627 129.717684,43.6621105 C129.316453,43.7573624 129.242303,44.1694369 129.098693,44.9097641 C128.96153,45.6178523 128.811178,46.3485078 129.148224,46.3485078 L129.148224,46.3485078 Z M130.472372,45.9997392 C130.488491,45.9997392 130.50549,45.9982738 130.523955,45.9950499 C130.940132,45.921193 130.920496,45.3200801 131.069382,44.5598232 C131.208303,43.8499766 131.445114,43.2312787 131.137963,43.2312787 C131.115689,43.2312787 131.09107,43.2345026 131.06352,43.2409505 C130.646756,43.338547 130.569675,43.7617587 130.420789,44.5223086 C130.278644,45.2494472 130.123017,45.9997392 130.472372,45.9997392 L130.472372,45.9997392 Z M131.868326,45.5970434 C131.88591,45.5970434 131.905254,45.595578 131.925184,45.5923541 C132.386203,45.517911 132.364222,44.909178 132.528641,44.1389563 C132.68163,43.4194379 132.94394,42.7931199 132.602205,42.7931199 C132.577879,42.7931199 132.550622,42.7963438 132.519849,42.8027916 C132.05795,42.9009744 131.973249,43.3300476 131.809123,44.1005624 C131.652323,44.8370796 131.479991,45.5970434 131.868326,45.5970434 L131.868326,45.5970434 Z M127.89676,46.7166199 C127.911707,46.7166199 127.927827,46.7151544 127.944532,46.7119305 C128.330229,46.6412976 128.312351,46.0680275 128.450687,45.3420613 C128.579643,44.6653331 128.799748,44.0750642 128.514285,44.0750642 C128.49377,44.0750642 128.470909,44.077995 128.445118,44.0841498 C128.059128,44.1773501 127.987616,44.5812183 127.849281,45.3068914 C127.7171,46.0006185 127.572317,46.7166199 127.89676,46.7166199 L127.89676,46.7166199 Z M126.61716,47.0290462 C126.632107,47.0290462 126.647934,47.0275808 126.664933,47.0246499 C127.050337,46.9560685 127.032752,46.3989181 127.170794,45.6931746 C127.299457,45.0349105 127.519269,44.4607612 127.233513,44.4607612 C127.213291,44.4607612 127.19043,44.4636921 127.164639,44.4698468 C126.778649,44.5598232 126.707137,44.9531404 126.569095,45.6585908 C126.437207,46.3329744 126.292424,47.0290462 126.61716,47.0290462 L126.61716,47.0290462 Z M111.908212,49.4771671 C111.895902,49.4771671 111.881834,49.4798049 111.866008,49.4847873 C111.630076,49.5633335 111.573511,49.8986203 111.46595,50.5003193 C111.363078,51.0750548 111.251999,51.6685475 111.446313,51.6685475 C111.455399,51.6685475 111.465364,51.6673752 111.475915,51.6647375 C111.710967,51.6052416 111.719466,51.1301544 111.827028,50.5278691 C111.927555,49.9669086 112.079372,49.4771671 111.908212,49.4771671 L111.908212,49.4771671 Z M121.854271,48.5683172 C121.865701,48.5683172 121.878011,48.5668518 121.891199,48.563921 C122.185455,48.4965119 122.184575,47.9551879 122.305326,47.2699603 C122.418455,46.6310397 122.597822,46.073303 122.382406,46.073303 C122.36658,46.073303 122.348995,46.0762339 122.329065,46.0820955 C122.033931,46.1708996 121.970918,46.5524935 121.849875,47.2377212 C121.734693,47.8924682 121.608961,48.5683172 121.854271,48.5683172 L121.854271,48.5683172 Z M124.120388,47.7849068 C124.133283,47.7849068 124.147058,47.7837345 124.161712,47.7805106 C124.493775,47.7133946 124.508136,47.1723637 124.662884,46.4874291 C124.807374,45.8482154 125.024841,45.2910649 124.781876,45.2910649 C124.764877,45.2910649 124.744947,45.2939958 124.722673,45.2998574 C124.388851,45.3880753 124.307667,45.7696692 124.152627,46.4546038 C124.00462,47.1093509 123.844597,47.7849068 124.120388,47.7849068 L124.120388,47.7849068 Z M133.257245,45.2673252 C133.275123,45.2673252 133.29388,45.2655667 133.314103,45.2623428 C133.775416,45.1846759 133.753434,44.5524962 133.918147,43.7520869 C134.071722,43.0050188 134.334031,42.3540818 133.992883,42.3540818 C133.968557,42.3540818 133.941007,42.3573057 133.910527,42.3640466 C133.448335,42.4666256 133.363341,42.9121115 133.198922,43.7125207 C133.041536,44.477467 132.869203,45.2673252 133.257245,45.2673252 L133.257245,45.2673252 Z M147.579324,41.6902491 C147.605116,41.6902491 147.632372,41.6881976 147.661681,41.6843875 C148.334013,41.5926526 148.288878,40.8356196 148.512793,39.878411 C148.722054,38.9839222 149.091632,38.2052011 148.591339,38.2052011 C148.556169,38.2052011 148.516896,38.2090112 148.472348,38.2172175 C147.799429,38.3382607 147.684834,38.8710853 147.460626,39.82888 C147.246968,40.7444708 147.010744,41.6902491 147.579324,41.6902491 L147.579324,41.6902491 Z M145.305588,42.2075404 C145.3305,42.2075404 145.35717,42.2054888 145.385306,42.2016787 C146.034778,42.1134608 145.991108,41.3822191 146.207697,40.4572496 C146.409338,39.5935345 146.766899,38.8408978 146.283605,38.8408978 C146.249607,38.8408978 146.211214,38.8447079 146.168423,38.8526211 C145.518659,38.968975 145.40758,39.4842146 145.191285,40.4091841 C144.984662,41.2940011 144.75635,42.2075404 145.305588,42.2075404 L145.305588,42.2075404 Z M143.257818,42.6887824 C143.281557,42.6887824 143.307056,42.6870239 143.334019,42.6832138 C143.95389,42.5967544 143.912565,41.8819253 144.118895,40.9783509 C144.311744,40.1345654 144.653185,39.3995137 144.192166,39.3995137 C144.159341,39.3995137 144.122998,39.4030307 144.08226,39.4106508 C143.461803,39.524367 143.356001,40.0281764 143.149377,40.9314577 C142.951546,41.7960521 142.734079,42.6887824 143.257818,42.6887824 L143.257818,42.6887824 Z M112.712138,49.2075309 C112.699829,49.2075309 112.685467,49.2101687 112.669641,49.2154442 C112.433709,49.2936973 112.376851,49.628984 112.269583,50.2306831 C112.166418,50.8054186 112.055046,51.3992044 112.249946,51.3992044 C112.259325,51.3992044 112.268997,51.397739 112.279548,51.3951012 C112.5146,51.3356054 112.5231,50.859932 112.630368,50.2582329 C112.731188,49.6972723 112.883298,49.2075309 112.712138,49.2075309 L112.712138,49.2075309 Z M103.669653,51.988594 C103.66174,51.988594 103.652361,51.9909387 103.642103,51.9962141 C103.489407,52.0659679 103.458633,52.36374 103.400017,52.897737 C103.343745,53.4079942 103.282491,53.9346641 103.409396,53.9346641 C103.415257,53.9346641 103.421705,53.9334917 103.428739,53.930854 C103.581142,53.877806 103.577625,53.4557667 103.636535,52.9217698 C103.691341,52.4235289 103.781318,51.988594 103.669653,51.988594 L103.669653,51.988594 Z M137.811459,44.0457559 C137.830803,44.0457559 137.851319,44.0439974 137.873007,44.0404804 C138.372127,43.9578311 138.348094,43.2860852 138.526288,42.436145 C138.692466,41.6424766 138.976464,40.9505081 138.606593,40.9505081 C138.580216,40.9505081 138.550907,40.9540251 138.517496,40.9613521 C138.017497,41.0700859 137.925762,41.5437077 137.74786,42.393941 C137.577579,43.2066598 137.391179,44.0457559 137.811459,44.0457559 L137.811459,44.0457559 Z M134.70273,44.8288733 C134.720315,44.8288733 134.739365,44.8271148 134.759588,44.8238909 C135.220314,44.7462239 135.198626,44.1137512 135.363631,43.3133419 C135.517207,42.5665668 135.779223,41.9156299 135.438075,41.9156299 C135.413749,41.9156299 135.386199,41.9188538 135.355425,41.9258878 C134.893527,42.0275875 134.808533,42.4736596 134.644113,43.2737757 C134.486728,44.0387219 134.314395,44.8288733 134.70273,44.8288733 L134.70273,44.8288733 Z M141.118606,43.1735414 C141.142346,43.1735414 141.167258,43.1717829 141.194221,43.1679728 C141.811161,43.0818065 141.769836,42.3702013 141.97558,41.4707301 C142.167843,40.6301685 142.507819,39.8980476 142.048265,39.8980476 C142.016026,39.8980476 141.979684,39.9018577 141.938945,39.9091847 C141.321713,40.023194 141.21591,40.5243656 141.010165,41.4238368 C140.813507,42.2849142 140.596626,43.1735414 141.118606,43.1735414 L141.118606,43.1735414 Z M136.297686,44.3192022 C136.315858,44.3192022 136.334908,44.3174437 136.355424,44.3139267 C136.824649,44.2350875 136.802375,43.5908914 136.969725,42.7755349 C137.125939,42.0146919 137.392644,41.3514454 137.045634,41.3514454 C137.020722,41.3514454 136.992879,41.3546693 136.961812,41.3617033 C136.492293,41.4660408 136.405834,41.9200261 136.238484,42.7350895 C136.078461,43.5146898 135.902904,44.3192022 136.297686,44.3192022 L136.297686,44.3192022 Z M139.400261,43.6272336 C139.42195,43.6272336 139.445103,43.6254751 139.469722,43.6216651 C140.035372,43.5372572 140.007822,42.8420647 140.208584,41.9628162 C140.396157,41.1415981 140.717083,40.4261829 140.298267,40.4261829 C140.26808,40.4261829 140.234668,40.4296999 140.197154,40.43732 C139.630625,40.5489846 139.527166,41.0384329 139.326111,41.9176814 C139.134435,42.7591223 138.923416,43.6272336 139.400261,43.6272336 L139.400261,43.6272336 Z M170.250161,36.6474658 L174.318737,34.6445377 L173.860356,31.8658193 L170.474076,32.4033332 L170.250161,36.6474658 L170.250161,36.6474658 Z M165.927482,33.3025113 L165.269511,35.2013951 C165.001341,35.8916052 165.981996,36.0188031 165.981996,36.0188031 L169.122672,36.7207365 L169.387325,36.3195061 L169.578122,32.4215043 C169.578122,32.4215043 167.698582,32.572442 166.917516,32.678538 C166.136157,32.784927 165.927482,33.3025113 165.927482,33.3025113 L165.927482,33.3025113 Z M171.144943,31.0569106 L173.298516,30.7263132 C173.411939,30.7090213 173.508656,30.6345782 173.509829,30.5199829 L173.515397,30.0531019 C173.516569,29.9429027 173.430403,29.841203 173.322256,29.841203 C173.318152,29.8414961 173.313463,29.8414961 173.309067,29.8417892 L171.316983,29.9900891 C171.20268,29.9988816 171.134392,30.0850479 171.105963,30.1964194 L170.93832,30.8455979 C170.911649,30.9496423 171.01628,31.0586691 171.122083,31.0586691 C171.129703,31.0586691 171.137323,31.058083 171.144943,31.0569106 L171.144943,31.0569106 Z M130.47413,49.3230056 C130.471786,49.3230056 130.469148,49.3232986 130.467096,49.3235917 C130.35338,49.3326773 130.279523,49.561575 130.301505,49.8353144 C130.323193,50.1031921 130.429289,50.3142117 130.540367,50.3142117 C130.542712,50.3142117 130.545056,50.3139186 130.547401,50.3136256 C130.660824,50.30454 130.735267,50.0750561 130.7127,49.8019029 C130.691012,49.5340252 130.585209,49.3230056 130.47413,49.3230056 L130.47413,49.3230056 Z M154.799127,37.4425995 L153.329316,37.4461165 L151.874746,37.925307 L151.704172,38.3376745 L152.98641,38.45608 L154.667826,38.0416609 L154.799127,37.4425995 L154.799127,37.4425995 Z M176.497808,42.6090639 L176.396108,42.4088883 L174.993707,42.3640466 L174.631457,42.5398963 L174.998396,42.76176 L176.115042,42.9364374 L176.497808,42.6090639 L176.497808,42.6090639 Z M118.783349,57.5533579 C118.81295,57.5542371 118.842845,57.5542371 118.873032,57.5542371 C119.614239,57.5542371 120.531881,57.3150815 120.542725,56.9991382 C120.553862,56.6700062 119.57819,56.3819058 118.823794,56.3619761 C118.795365,56.3610969 118.768109,56.3608038 118.741145,56.3608038 C118.050642,56.3608038 117.820572,56.6087519 117.810021,56.9252814 C117.798591,57.2544134 118.028661,57.5331352 118.783349,57.5533579 L118.783349,57.5533579 Z M178.659587,62.2998345 C178.809059,62.8212289 178.918379,63.3651906 178.986961,63.922048 C179.13233,65.1028788 179.037957,66.1134284 178.683913,66.9513522 C178.744874,66.8414462 178.804663,66.7309539 178.863866,66.6210479 C179.397863,65.6286694 179.180982,63.7971947 178.845988,62.2552859 C178.784147,62.26994 178.722307,62.2848873 178.659587,62.2998345 L178.659587,62.2998345 Z M194.013611,52.1685469 C194.007749,52.1749947 194.001595,52.1814425 193.995147,52.1884765 C193.993974,52.190235 193.992802,52.1914073 193.991337,52.1931658 C193.998371,52.1849595 194.006577,52.1764601 194.013611,52.1685469 L194.013611,52.1685469 Z M208.602982,52.05571 C208.578363,51.8845496 208.54671,51.7711265 208.54671,51.7711265 L207.30228,42.2207291 L206.588623,42.3086539 C206.588623,42.3086539 205.705565,50.8473294 205.566937,52.123119 C205.506268,52.6790972 205.345366,52.9446302 205.182705,53.0665527 C205.416878,53.0809137 205.706151,53.0926371 206.016526,53.0926371 C206.726079,53.0926371 207.542608,53.0305035 208.044952,52.7895894 C208.306675,52.6641499 208.48399,52.3921691 208.602982,52.05571 L208.602982,52.05571 Z M196.353584,45.5750622 C196.229903,43.6257682 194.259214,42.6029091 191.270942,40.5466399 C189.242222,39.1503933 185.926869,37.9710279 182.905771,37.0982272 C182.591,37.3332796 182.308468,37.5914856 182.054952,37.868742 C181.076641,38.9384944 180.530628,40.2931232 180.251027,41.6846806 C179.88057,43.5305163 179.978753,45.4422957 180.160171,46.8493864 C180.175998,46.9713088 180.195927,47.0946967 180.220253,47.2186708 C180.964098,47.1750014 181.672186,47.1207811 182.337191,47.0548375 C189.82194,46.3109932 194.413669,46.8895387 196.353584,45.5750622 L196.353584,45.5750622 Z M189.53765,34.5850419 L189.910451,34.7544437 L189.047029,33.0440123 L188.508929,33.1805889 L189.243688,34.5674569 L189.53765,34.5850419 L189.53765,34.5850419 Z M188.822235,34.5422518 L188.041755,33.38985 L187.499259,33.8834015 L187.743104,34.422967 L188.353888,34.5601298 L188.354474,34.514702 L188.822235,34.5422518 L188.822235,34.5422518 Z M170.806726,64.374861 C170.539141,64.7218711 170.119446,64.9449071 169.648462,64.9449071 L169.63117,64.9449071 C168.898756,64.9364077 168.299109,64.3909805 168.201512,63.6867025 C168.029179,63.7057529 167.857433,63.7245102 167.687445,63.7423882 C167.838089,64.5671233 168.520386,65.1940275 169.34688,65.2036993 L169.366223,65.2036993 C169.969095,65.2036993 170.500747,64.8739811 170.806726,64.374861 L170.806726,64.374861 Z M165.245186,63.9827161 C161.960606,64.2810745 159.588687,64.3988938 159.588687,64.3988938 L158.406977,64.4372876 C158.391443,64.62955 158.384409,64.827674 158.385289,65.0319527 C158.385582,65.0978964 158.392029,65.1676501 158.393788,65.234766 C158.397891,65.3754458 158.401115,65.5164187 158.412838,65.6632532 C158.413425,65.6691148 158.414304,65.6752696 158.41489,65.6817174 C158.73435,65.475094 159.211782,65.2954342 159.923973,65.2362315 C160.101289,65.2215773 160.288275,65.2151295 160.484348,65.2151295 C161.034757,65.2151295 161.658438,65.2643674 162.346889,65.3136053 C163.035341,65.3628432 163.788271,65.4126673 164.598938,65.4126673 C164.804096,65.4126673 165.012771,65.4091503 165.225256,65.4024094 C165.197999,65.1362902 165.188621,64.8607923 165.198585,64.5753297 C165.205033,64.3821881 165.220567,64.1849433 165.245186,63.9827161 L165.245186,63.9827161 Z M162.462071,47.3669707 C162.304978,46.5395978 162.212657,45.7494465 162.188625,45.0202564 C162.179832,44.7526717 162.17397,44.4736569 162.171919,44.1855565 C162.150231,40.961059 162.608905,36.4962351 164.610661,32.784927 C166.093367,30.03581 168.421324,28.1624245 171.021848,27.1017577 C169.731111,26.7635401 168.035334,26.5044549 165.798819,26.359965 C165.512477,26.3415008 165.210895,26.3327083 164.896124,26.3327083 C164.354507,26.3327083 163.773324,26.3590858 163.15785,26.4092029 C160.91518,26.7735049 158.717938,27.2582639 156.77304,27.7474192 C153.406104,29.5150018 151.715895,32.7638251 151.296494,33.5495802 C149.560271,36.8019205 148.747259,40.6972845 148.562324,44.0243609 L150.097492,43.642767 L150.130903,43.7790506 L148.554704,44.1670922 C148.517482,44.902144 148.511328,45.6084736 148.53243,46.2723063 C148.548549,46.7720125 148.594856,47.3001478 148.670765,47.8487989 C149.417833,47.7790452 150.183072,47.7189632 150.962673,47.6673806 C150.670176,47.4929963 150.36449,47.1782253 150.277152,46.6122824 C150.178383,45.9733618 150.10013,44.36082 150.215897,42.5821002 C150.294444,41.3754782 150.462673,40.0879653 150.774806,38.968975 C151.117713,37.7386132 151.534477,36.5917801 151.962378,35.5853336 C152.49403,34.3347491 153.043854,33.2966497 153.488754,32.5838722 C153.927499,31.8810596 154.434532,31.2160546 154.999596,30.7110729 C155.485234,30.2770172 156.015421,29.9590223 156.585174,29.8327036 C157.740799,29.5768423 159.152873,29.46635 159.251348,29.4587299 C159.280364,29.4531613 159.360961,29.4393864 159.450938,29.4393864 C159.727315,29.4393864 160.09572,29.5668775 159.366823,30.4446606 C158.969989,30.9223856 158.401408,31.8268392 157.856274,32.8426644 C157.36155,33.7638237 156.887635,34.7743734 156.580191,35.6389677 C156.25399,36.556317 155.897895,37.599985 155.599536,38.6445323 C155.300885,39.6899588 155.056747,40.7444708 154.951823,41.6911284 C154.741683,43.5844435 154.949772,46.0454602 154.950358,46.0524941 C154.965891,46.1641587 155.096606,47.2438759 154.262785,47.498858 C156.927495,47.3983305 159.700058,47.3693153 162.462071,47.3669707 L162.462071,47.3669707 Z M154.090453,47.2532545 C154.836935,47.1108163 154.671929,46.0864918 154.671636,46.0835609 L154.67017,46.0738892 C154.669877,46.0668552 154.459151,43.5785819 154.672222,41.6597685 C154.778904,40.6999222 155.026559,39.6292906 155.3299,38.5677446 C155.633241,37.5056124 155.989923,36.4601859 156.315244,35.5451812 C156.627671,34.666812 157.10774,33.6427805 157.608326,32.7101909 C158.161959,31.6791255 158.742263,30.7565007 159.150821,30.2650008 C159.551465,29.7828795 159.411079,29.73159 159.333412,29.73159 C159.312603,29.73159 159.29619,29.7354001 159.295897,29.7354001 L159.28476,29.7377448 L159.278605,29.7383309 C159.274502,29.738624 157.825793,29.8461854 156.645842,30.1076153 C156.127085,30.2225038 155.638223,30.517052 155.186876,30.9206271 C154.642035,31.4074377 154.151707,32.0510476 153.72703,32.7321721 C153.289164,33.4329332 152.747254,34.4563785 152.22117,35.6946535 C151.796786,36.6931867 151.38354,37.8288827 151.045029,39.043418 C150.739343,40.1389617 150.574045,41.4077173 150.496378,42.6005645 C150.382075,44.3587684 150.45857,45.9443466 150.554994,46.5697854 C150.691278,47.4540163 151.474102,47.583852 151.586939,47.598213 L154.090453,47.2532545 L154.090453,47.2532545 Z M148.505173,47.8643323 C148.429264,47.3118711 148.382664,46.7805119 148.366545,46.2772887 C148.345736,45.624007 148.351304,44.9302799 148.386474,44.2084169 L121.0946,50.9255825 C121.09079,51.2075282 121.093428,51.4815607 121.101927,51.7470937 C121.115116,52.1758739 121.157906,52.6322039 121.228832,53.1081704 C130.334916,51.1518425 139.734376,49.1928768 144.490524,48.383382 C145.748436,48.1694315 147.094565,47.9991504 148.505173,47.8643323 L148.505173,47.8643323 Z M121.710367,45.797219 L119.942492,46.3678513 C119.851343,46.657124 119.749643,47.010875 119.65527,47.3795732 C119.543606,47.8159736 119.44132,48.2746482 119.3786,48.6726547 C119.311777,49.0961594 119.23499,49.7608713 119.174322,50.3734145 C119.138272,50.7394749 119.108085,51.086485 119.089328,51.3508457 L121.025433,50.8696037 C121.049466,49.3177301 121.258141,47.545165 121.710367,45.797219 L121.710367,45.797219 Z M119.21506,48.6462773 C119.278366,48.2444607 119.381824,47.7802175 119.494954,47.3379555 C119.578483,47.0120474 119.667287,46.6984487 119.749643,46.4302779 L118.994076,46.6741228 C118.965353,46.7459281 118.936924,46.8224228 118.908788,46.9027275 C118.736163,47.3953997 118.580536,48.0308033 118.436925,48.6937567 C118.229129,49.6518445 118.157324,50.9446329 118.133584,51.5882428 L118.920512,51.3927566 C118.939269,51.1187241 118.971215,50.7482674 119.009902,50.3567087 C119.07057,49.7412348 119.147651,49.0727128 119.21506,48.6462773 L119.21506,48.6462773 Z M118.915822,51.4619241 L118.130947,51.6556519 C118.123913,51.8616891 118.122154,51.9856632 118.122154,51.9868355 L118.121568,51.9926972 C118.098708,52.264678 118.16553,52.3385349 118.2558,52.345862 C118.263127,52.3467412 118.27104,52.3470343 118.279247,52.3470343 C118.332881,52.3470343 118.397359,52.3338456 118.458906,52.321243 C118.503162,52.3127436 118.546538,52.3039511 118.588742,52.2995549 L118.589035,52.3001411 C118.681356,52.2898832 118.760782,52.2347836 118.81676,52.1518411 C118.876842,52.0618647 118.909961,51.9405284 118.903806,51.8054172 C118.901168,51.7456283 118.905858,51.6245851 118.915822,51.4619241 L118.915822,51.4619241 Z M118.275143,48.6582937 C118.420219,47.9885994 118.577605,47.3464549 118.751989,46.8482141 C118.764885,46.8112856 118.778074,46.7749433 118.791262,46.7397734 L118.062365,46.9748258 C117.967406,47.2696672 117.853983,47.6694322 117.752577,48.0900061 C117.653222,48.5000289 117.565004,48.9299815 117.514007,49.3016105 C117.459787,49.6966862 117.402636,50.3200734 117.360139,50.8942227 C117.335227,51.2300956 117.31559,51.5486766 117.30416,51.7942801 L117.448357,51.758524 C117.446891,51.7256987 117.446891,51.691408 117.44865,51.655945 C117.46008,51.4247026 117.540678,51.2409397 117.629189,51.2409397 L117.632413,51.2409397 C117.722096,51.2450428 117.785402,51.4384775 117.773386,51.6720645 C117.773386,51.6741161 117.773092,51.6761677 117.773092,51.6779262 L117.965648,51.6298606 C117.987922,50.9988532 118.059434,49.653603 118.275143,48.6582937 L118.275143,48.6582937 Z M117.350174,49.2793362 C117.401757,48.9015524 117.49144,48.4654452 117.591674,48.051026 C117.682237,47.6767592 117.781006,47.3200774 117.868637,47.0375456 L117.13593,47.2737703 C117.086399,47.3827972 117.038334,47.5067712 116.991734,47.6436409 C116.834348,48.104074 116.697478,48.6996184 116.572918,49.3218332 C116.393845,50.2183736 116.359847,51.4258749 116.354572,52.0305048 L117.13681,51.8358978 C117.147654,51.5806227 117.168463,51.2403535 117.19484,50.8816201 C117.23763,50.3062985 117.294781,49.6799805 117.350174,49.2793362 L117.350174,49.2793362 Z M117.134172,51.9003761 L116.353985,52.0929315 C116.352813,52.2887108 116.354865,52.4065301 116.354865,52.4082886 L116.354865,52.4150295 C116.339917,52.6708908 116.412602,52.7374206 116.507268,52.7429892 L116.507854,52.7429892 C116.514302,52.7432823 116.521336,52.7435754 116.52837,52.7435754 C116.582883,52.7435754 116.645017,52.731559 116.705099,52.7201288 C116.750526,52.7116294 116.794782,52.7037161 116.834055,52.699613 C116.92579,52.6905274 117.00375,52.639531 117.056505,52.5627433 C117.112484,52.480387 117.141206,52.3693086 117.131534,52.2444553 C117.126845,52.1855457 117.12831,52.0639163 117.134172,51.9003761 L117.134172,51.9003761 Z M116.410843,49.2890079 C116.53599,48.6609314 116.674618,48.0586462 116.834934,47.5897136 C116.864536,47.502375 116.895602,47.4191394 116.927255,47.3411794 L113.26372,48.5240617 C112.8663,50.046334 112.680192,51.592346 112.653815,52.9504919 L115.423447,52.2617472 C115.42374,52.2585233 115.42374,52.2552994 115.424034,52.2520755 C115.435757,52.0208331 115.501114,51.8353117 115.570868,51.8353117 L115.57292,51.8353117 C115.636519,51.8388287 115.68136,51.995628 115.680774,52.1978551 L116.18898,52.0715364 C116.19279,51.4762852 116.224736,50.2186667 116.410843,49.2890079 L116.410843,49.2890079 Z M107.560621,54.2166097 L112.583182,52.9680768 C112.608094,51.613448 112.791857,50.0706599 113.184881,48.5495599 L110.229433,49.5038377 C111.474449,49.1108136 112.45188,48.7992665 112.684881,48.7992665 C112.744084,48.7992665 112.755221,48.8194892 112.710086,48.8637447 C112.153229,49.4091719 107.862203,50.7201315 104.559453,51.6034831 C102.13302,52.2529547 101.167898,52.5697773 100.56444,52.650082 C100.5026,53.0126254 100.472705,53.3288618 100.458638,53.5753445 C100.481498,53.5785684 100.504065,53.5820854 100.526633,53.5856024 C100.562389,53.1717694 100.590818,52.9378893 100.687242,52.8772212 C100.694862,52.8725318 100.70131,52.8701872 100.707172,52.8701872 C100.777512,52.8701872 100.733842,53.2031293 100.694569,53.6154968 C100.781322,53.6327887 100.867488,53.6527184 100.952482,53.6755788 C100.954241,53.6568215 100.955999,53.6374781 100.957758,53.6184277 C101.003772,53.0984987 101.027511,52.8089329 101.143572,52.7409376 C101.151485,52.7359552 101.158519,52.7339037 101.164674,52.7339037 C101.249375,52.7339037 101.179914,53.1565291 101.137124,53.640702 C101.134487,53.6705964 101.132142,53.6993185 101.129504,53.7283337 C101.161157,53.7382985 101.192517,53.7488495 101.223584,53.7596936 C101.279856,53.7799163 101.333783,53.8004321 101.385365,53.8221202 C101.394451,53.7125073 101.405295,53.5976188 101.415846,53.4833165 C101.464791,52.9601636 101.489703,52.6694254 101.613091,52.600551 C101.62159,52.5958616 101.62921,52.593517 101.635658,52.593517 C101.725635,52.593517 101.652071,53.0187802 101.606643,53.5055908 C101.593454,53.6506668 101.583783,53.7872434 101.574404,53.909752 C101.669363,53.9586968 101.75465,54.0102794 101.832024,54.0636205 C101.83642,53.8690135 101.86309,53.6040666 101.888296,53.343516 C101.939878,52.8180184 101.965963,52.5249356 102.096678,52.4563542 C102.105763,52.4513718 102.113383,52.4493202 102.120417,52.4493202 C102.215962,52.4493202 102.138295,52.876635 102.090523,53.3663764 C102.056525,53.7180758 102.045974,54.0199512 102.004063,54.1969732 C102.004649,54.1975594 102.004943,54.1978524 102.005529,54.1981455 C102.119831,54.2004902 102.234426,54.2028349 102.349901,54.2051795 C102.281613,54.104359 102.330558,53.6459775 102.375692,53.1999054 C102.42962,52.671477 102.457756,52.3766357 102.595505,52.3074681 C102.604883,52.3027788 102.613089,52.3004341 102.620417,52.3004341 C102.72153,52.3004341 102.639467,52.7306797 102.589643,53.2227658 C102.539526,53.7169035 102.538353,54.1128584 102.426103,54.206938 C105.718888,54.2711232 109.481486,54.3446869 112.62773,54.4044758 C112.607507,54.1931631 112.594319,53.987712 112.588164,53.7884157 C112.580251,53.5410538 112.578199,53.2846063 112.582302,53.0211248 L107.781312,54.2028349 L107.560621,54.2166097 L107.560621,54.2166097 Z M102.312973,54.5518965 C102.378916,54.6553548 102.425516,54.7558822 102.458342,54.847324 C104.092865,55.1641466 105.32645,55.7614494 106.261385,56.4973804 C109.004054,56.7678959 111.55153,57.0431007 113.054166,57.2617405 C115.682533,57.6442136 117.938977,58.1565224 119.521039,58.1565224 C120.27602,58.1565224 120.877426,58.0398754 121.292724,57.7371208 C121.292431,57.7110364 121.293017,57.6858313 121.292431,57.6591608 C121.291845,57.6195946 121.290966,57.5794423 121.289793,57.5389968 C121.288621,57.4964998 121.288035,57.4560544 121.288035,57.4164882 C121.287742,56.6184236 121.513416,56.3279785 121.513709,55.9282135 C121.514002,55.8147905 121.495831,55.6922818 121.449231,55.5469128 C121.231177,54.8652021 121.299758,54.9648502 119.034814,54.9378866 C117.671393,54.921474 109.001416,54.7145575 102.312973,54.5518965 L102.312973,54.5518965 Z M109.40675,63.0386963 C109.399716,62.9874068 109.391802,62.9381689 109.382717,62.8921549 C109.067653,61.2746307 108.645907,55.2303833 100.711568,54.8423416 C100.493514,54.8314975 100.280443,54.8265151 100.071768,54.8265151 C93.9483884,54.8265151 91.8417089,59.3282676 91.1884273,62.354641 C91.3633977,62.7749218 91.6673246,63.235648 92.156773,63.235648 C92.2247682,63.235648 92.2962804,63.2271486 92.3716027,63.2078051 C92.8865493,63.0770902 93.2754702,62.9683564 93.7789865,62.945496 C93.5216598,66.9135446 96.5553602,68.9513495 101.348144,69.250294 C101.576162,69.2646551 101.80125,69.271396 102.023114,69.271396 C105.2523,69.271396 107.799483,67.7922069 108.789224,65.5999473 C108.842565,65.5621396 108.899423,65.4780248 108.960971,65.3273802 C109.268708,64.572985 109.348133,63.7851783 109.304757,63.0770902 C109.339341,63.0644876 109.373338,63.051885 109.40675,63.0386963 L109.40675,63.0386963 Z M94.2628663,55.4112154 C94.2628663,55.4112154 94.6708376,55.4449199 95.3710125,55.5047088 C95.4053032,55.1283905 95.5339665,54.702248 95.8877175,54.3950972 C94.9070624,54.3710644 94.3285168,54.3567033 94.3285168,54.3567033 L16.0018347,48.17119 L9.73249962,47.5126329 C11.0329082,47.8795726 10.4543627,47.7233594 17.7688311,48.5012013 C25.0832996,49.2793362 94.2628663,55.4112154 94.2628663,55.4112154 L94.2628663,55.4112154 Z M83.5583086,55.915611 L83.5459991,55.915611 L83.449868,55.915611 C82.9105955,55.9182487 82.2353327,55.9446262 81.6749583,55.9704175 C81.0808794,55.9979672 80.6157569,56.0258101 80.5794146,56.0258101 C80.5779492,56.0258101 80.57707,56.0258101 80.57707,56.025517 L80.676425,57.8939201 C80.7587813,58.0261005 80.8938925,58.1462645 81.1128254,58.1462645 C81.1547362,58.1462645 81.1995779,58.1415751 81.2479366,58.1319034 C81.857842,58.0111533 82.8373248,57.3103922 83.1254253,56.9572274 C83.375718,56.6506627 83.5413098,56.3162552 83.5583086,55.915611 L83.5583086,55.915611 Z M65.6427407,53.9789196 C65.6406892,53.9789196 65.6386376,53.9789196 65.6362929,53.9786265 C65.3432101,53.9622138 65.0551097,53.9531283 64.8602096,53.9531283 L64.8147817,53.9531283 C64.7655438,53.9537144 64.723926,53.9548868 64.6916869,53.9566453 C64.3751575,53.9751095 64.019648,54.047794 64.019648,54.047794 L64.0155448,56.3517182 C64.0155448,56.3517182 64.0143725,56.4455047 64.0574557,56.5542385 C64.1090382,56.5416359 64.178792,56.4909326 64.2740439,56.3775095 C64.6911008,55.8801479 65.2799042,55.4965025 65.4961993,54.9516615 C65.6113809,54.6623887 65.6406892,54.2766917 65.6427407,53.9789196 L65.6427407,53.9789196 Z M100.914088,50.6571186 L100.919364,50.6577048 L101.205706,50.0876587 L101.185776,50.0870725 L101.168484,50.0864864 L69.5973075,48.8300402 L69.5893943,48.8300402 C69.4132515,48.8300402 69.3452563,48.9827364 69.3645997,49.1342602 L100.914088,50.6571186 L100.914088,50.6571186 Z M101.415846,50.1512577 C101.698671,50.3760522 102.338764,50.7796273 103.533663,51.0448672 C103.635362,51.0671415 103.758164,51.0776925 103.899723,51.0776925 C104.703649,51.0776925 106.104878,50.7374233 107.55769,50.3194872 L113.201586,48.4839094 C113.48617,47.400089 113.877435,46.3282851 114.393554,45.3449922 C114.509029,45.1243008 114.631244,44.9082987 114.759908,44.6975722 L102.50758,48.6398295 C102.050077,49.1240023 101.693396,49.6386558 101.415846,50.1512577 L101.415846,50.1512577 Z M102.549197,47.6026093 L101.907053,48.142761 L101.913794,48.6761717 C103.023112,47.2380142 105.677271,46.0818024 109.810618,44.6292839 L110.132423,44.4510895 C110.132423,44.4510895 108.428439,42.8681491 107.599894,42.0267082 C107.264314,41.686146 107.013142,41.1750095 106.832603,40.6873197 C106.233542,40.9214929 105.800952,41.296932 105.800952,41.296932 L102.042164,18.6146648 C101.73472,18.9695881 101.577335,19.3379932 101.549785,19.4059885 L102.549197,47.6026093 L102.549197,47.6026093 Z M109.695436,45.0551332 C109.361029,45.3382513 109.109857,45.5988019 109.318239,45.5988019 C109.334065,45.5988019 109.352236,45.5976296 109.373045,45.5944057 C109.650302,45.5545464 112.272807,44.8778181 115.130951,44.1298707 C115.614244,43.4417122 116.176084,42.8247728 116.824969,42.3145156 C114.122746,43.3485119 111.674918,44.2887216 109.695436,45.0551332 L109.695436,45.0551332 Z M118.017817,46.5642168 C117.985871,46.5642168 117.889153,46.6143339 117.769575,46.6758813 C117.687219,46.7183784 117.595191,46.7658578 117.494664,46.8083548 C117.381534,46.8561273 117.275438,46.9918246 117.175497,47.1917071 L117.89355,46.9581201 C117.915824,46.8877802 117.937512,46.8227158 117.957735,46.7643924 C118.007559,46.6196094 118.025144,46.5653891 118.023971,46.565096 C118.022213,46.5645099 118.020161,46.5642168 118.017817,46.5642168 L118.017817,46.5642168 Z M119.975317,45.747688 C119.973852,45.7471018 119.972093,45.7468087 119.970041,45.7468087 C119.940147,45.7468087 119.841671,45.8004429 119.720628,45.8660935 C119.63622,45.9115213 119.54214,45.9625177 119.441027,46.0079456 C119.297123,46.0718376 119.160254,46.2822711 119.029246,46.5888357 L119.775728,46.3458701 C119.820569,46.2025526 119.863066,46.0741823 119.901167,45.966914 C119.957146,45.8080631 119.977075,45.7485672 119.975317,45.747688 L119.975317,45.747688 Z M117.05885,42.2248322 C116.356037,42.7412442 115.752286,43.380751 115.236754,44.1023209 C118.867757,43.1518533 122.835512,42.0993928 122.835512,42.0993928 L114.862194,44.6647469 C114.718876,44.8959893 114.583472,45.1339725 114.455688,45.3775244 C113.948948,46.3429392 113.563251,47.3939343 113.281012,48.4581181 L116.961253,47.2611678 C117.09783,46.9493276 117.252284,46.7315671 117.429892,46.6562448 C117.520455,46.618144 117.611604,46.5706646 117.693667,46.5284607 C117.828778,46.4584139 117.941615,46.4003835 118.027781,46.4003835 C118.04566,46.4003835 118.062365,46.4027281 118.077899,46.4082967 C118.180771,46.4437597 118.203924,46.5598205 118.114534,46.8183196 C118.106328,46.8426455 118.097535,46.8681437 118.08845,46.8945211 L118.823208,46.6559517 C118.985869,46.2409464 119.167581,45.9484497 119.373325,45.8567148 C119.465939,45.8153901 119.55826,45.7649799 119.640909,45.7204313 C119.779245,45.6456952 119.894133,45.5832685 119.981765,45.5832685 C119.999057,45.5832685 120.015176,45.5859063 120.030417,45.5911818 C120.133582,45.6278171 120.154097,45.7494465 120.05738,46.0223066 C120.030123,46.0993874 120.000815,46.1870192 119.969455,46.2831503 L121.733228,45.7095872 C122.056791,44.4803978 122.501984,43.2652763 123.08815,42.1503892 C123.718278,40.9519735 124.512239,39.8684462 125.495239,39.0064896 C122.579065,40.1166874 119.701871,41.2136965 117.05885,42.2248322 L117.05885,42.2248322 Z M121.789207,45.7717208 C121.332877,47.5208392 121.121271,49.2972143 121.095773,50.8517257 L148.394095,44.0662717 C148.517482,41.7667438 148.940108,39.1934764 149.758102,36.7427177 L121.789207,45.7717208 L121.789207,45.7717208 Z M125.689553,38.9326327 C124.64442,39.8080711 123.807961,40.9323369 123.150283,42.1832145 C122.573203,43.2799305 122.133872,44.4745361 121.81236,45.6837959 L149.813788,36.577419 C150.179848,35.5059081 150.622696,34.4596024 151.149952,33.4719132 C152.429845,31.0742025 154.207686,29.0220365 156.600414,27.7910885 C152.615074,28.8016382 149.724691,29.816584 149.724691,29.816584 C149.724691,29.816584 137.433382,34.4625332 125.689553,38.9326327 L125.689553,38.9326327 Z M185.878804,30.1846961 L185.979624,30.6767822 L185.990761,30.7318817 L186.06667,30.7456566 L187.389646,30.9912601 L187.784721,31.0648239 L186.792929,30.3558565 L185.878804,30.1846961 L185.878804,30.1846961 Z M207.868516,53.7558835 C206.40574,53.9669032 193.614139,55.1342521 190.70705,55.3980267 C190.626453,55.4677804 190.543217,55.5378272 190.461154,55.6075809 C190.409571,55.6515433 190.358575,55.6957988 190.306113,55.7397613 C190.185656,55.8411679 190.062561,55.9428677 189.93888,56.0448605 C189.892573,56.0832544 189.847438,56.121062 189.800545,56.1594559 C189.64609,56.2851884 189.488412,56.4112141 189.328975,56.5372397 C189.311976,56.5510146 189.29527,56.5647895 189.277978,56.5779782 C189.097732,56.7198303 188.914556,56.8610962 188.728741,57.0026552 C188.703536,57.0214125 188.677159,57.040756 188.65166,57.0598064 C188.494568,57.1782118 188.335717,57.2969104 188.174522,57.4141435 C188.11444,57.4578129 188.052892,57.5011891 187.992517,57.5445654 C187.863561,57.6374727 187.734604,57.7300868 187.603303,57.8218218 C187.531498,57.8719389 187.458227,57.921763 187.385249,57.9718802 C187.263034,58.055995 187.140525,58.1401097 187.016551,58.2233453 C186.937419,58.2761002 186.857407,58.3282689 186.777689,58.3807307 C186.657232,58.45957 186.536775,58.5384093 186.414559,58.6163693 C186.331324,58.6697104 186.247209,58.7221722 186.162801,58.7752202 C186.042051,58.8508356 185.920421,58.9258648 185.797913,59.0003079 C185.711453,59.0524766 185.624701,59.1046454 185.537655,59.1559349 C185.414854,59.2289125 185.291173,59.3007178 185.166905,59.3725231 C185.078981,59.4229333 184.99047,59.4733436 184.901665,59.5231677 C184.775054,59.5940937 184.647563,59.6638474 184.519485,59.733015 C184.432147,59.7802013 184.344515,59.8276807 184.256297,59.874574 C184.122944,59.9443277 183.988419,60.0129091 183.853894,60.0811974 C183.769486,60.1234013 183.685372,60.1670707 183.600378,60.2086884 C183.456181,60.2790283 183.311105,60.3479028 183.165736,60.415898 C183.088655,60.4519472 183.011574,60.4891687 182.933614,60.5246317 C182.765678,60.6014194 182.596276,60.6752763 182.426288,60.7479608 C182.370309,60.7719936 182.314916,60.7971988 182.258644,60.8206454 C182.029747,60.9167766 181.799677,61.0096838 181.567848,61.0976087 C181.552901,61.1034703 181.536488,61.1084527 181.521541,61.1143144 C181.356242,61.176741 181.185375,61.2374092 181.010405,61.2974912 C180.948271,61.3185931 180.884672,61.3399882 180.821073,61.3610901 C180.673652,61.4103281 180.523301,61.4583936 180.369726,61.5058731 C180.314333,61.523165 180.260113,61.5407499 180.203841,61.5580418 C180.004837,61.6181238 179.801145,61.6770334 179.592763,61.7347708 C179.524768,61.7538211 179.455014,61.7719923 179.386139,61.7910427 C179.230219,61.8326604 179.072834,61.8745713 178.912811,61.9150167 C178.86709,61.9270331 178.823714,61.9390495 178.7777,61.9510659 C178.708532,61.9683578 178.639071,61.9856497 178.569611,62.0026485 C178.569025,62.0026485 178.569611,62.0026485 178.569318,62.0026485 C178.600677,62.1011243 178.630865,62.2001863 178.659294,62.3004206 C178.624124,62.3083339 178.588954,62.3168333 178.553491,62.3256258 C178.67131,62.8080401 178.730806,63.3130219 178.724945,63.8332439 C178.685672,67.1298397 178.200033,68.7631904 173.502208,69.3481837 C173.097461,69.398594 172.71235,69.4232129 172.348048,69.4232129 C169.16341,69.4232129 167.511595,67.5753256 167.050283,65.2374038 C166.41781,65.3332419 165.809077,65.3821867 165.227307,65.4024094 C165.545595,68.3399787 168.16898,69.9525205 171.902562,69.9525205 C172.159303,69.9525205 172.421319,69.9451935 172.688024,69.9296601 C175.303202,69.7796016 177.061406,69.1213376 178.055836,67.9668843 C177.056131,69.3663548 175.460002,70.5392724 171.592188,70.7620153 C168.943012,70.9147115 166.632054,70.9513468 165.02977,70.9513468 C163.5667,70.9513468 162.694486,70.9211593 162.694486,70.9211593 C162.694486,70.9211593 162.509843,70.8593188 162.218519,70.7315347 C162.06553,70.7344655 161.899059,70.736224 161.725554,70.736224 C160.960607,70.736224 160.062016,70.6990025 159.63939,70.5445479 C159.070809,70.336166 158.916648,69.8156508 158.875323,69.5211026 C158.590153,69.398594 158.310259,69.2599658 158.04795,69.1037526 C156.729664,68.3194629 155.838692,66.5706376 155.806746,64.5214024 L141.131209,64.9964897 C141.318782,64.9501826 141.417551,64.9238051 141.417551,64.9238051 C140.896449,64.9484241 140.396743,64.9598543 139.916966,64.9598543 C135.296222,64.9598543 132.560294,63.890102 131.450976,62.9627879 C130.226182,61.9390495 128.444239,58.5331338 125.910538,55.378097 C124.476776,53.5932225 123.497,53.0744659 122.095478,53.0744659 C121.825256,53.0744659 121.5395,53.0938094 121.231763,53.1269277 C121.20861,53.1295655 121.185749,53.1319102 121.162302,53.1345479 C121.120392,53.1392372 121.077601,53.1445127 121.034811,53.1494951 C121.077015,53.1407026 121.11834,53.1319102 121.160544,53.1225315 C121.088739,52.6424618 121.045069,52.1814425 121.031587,51.7488522 C121.023674,51.4883016 121.021037,51.2192515 121.02426,50.9434606 L119.084638,51.4208925 C119.072622,51.6014316 119.06676,51.7353704 119.069691,51.7980901 C119.077311,51.9692505 119.033935,52.1260498 118.954802,52.243283 C118.87186,52.3669639 118.750231,52.4490271 118.606327,52.4642674 L118.60662,52.4642674 C118.572916,52.4677844 118.53247,52.4756977 118.491145,52.4844902 C118.422564,52.4982651 118.350466,52.512333 118.279833,52.512333 C118.26723,52.512333 118.254628,52.5117469 118.242025,52.5108676 C118.0609,52.4959204 117.924323,52.3836697 117.956269,51.9841977 L117.955976,51.9841977 C117.955976,51.9830254 117.957442,51.8763433 117.963303,51.6966835 L117.767524,51.7447491 C117.74437,51.9405284 117.671979,52.0870698 117.592847,52.0870698 L117.589623,52.0870698 C117.5228,52.0835528 117.470338,51.9748191 117.453046,51.8221229 L117.301522,51.8593445 C117.293902,52.0384181 117.29185,52.1711846 117.296833,52.2318527 C117.309729,52.3945137 117.269869,52.543986 117.193375,52.6556505 C117.11307,52.7728837 116.993492,52.8502575 116.850468,52.8646186 C116.813832,52.8684287 116.775145,52.8754627 116.735579,52.8827897 C116.667584,52.8953923 116.596072,52.9091672 116.526318,52.9091672 C116.516939,52.9091672 116.507561,52.9091672 116.497889,52.908581 C116.312075,52.897737 116.167585,52.795158 116.189566,52.4071163 C116.189273,52.3860143 116.1881,52.2875385 116.188687,52.1333769 L115.679602,52.2588164 C115.679602,52.2605749 115.679309,52.2629195 115.679309,52.264678 C115.667585,52.4965066 115.601935,52.6817349 115.532474,52.6817349 L115.530423,52.6817349 C115.467117,52.678511 115.422568,52.522884 115.422568,52.3218292 L112.652935,53.0035399 C112.648832,53.2725899 112.650884,53.5343129 112.658504,53.7866572 C112.664659,53.9865397 112.67814,54.1937493 112.698949,54.4059413 C113.451586,54.4203023 114.168174,54.4340772 114.834351,54.4463867 C115.153225,54.4525414 115.459203,54.45811 115.752872,54.4636786 C116.347538,54.2491419 117.029248,54.0773954 117.817934,53.9639723 C119.675786,53.697267 120.926078,53.3992017 121.94161,53.3992017 C123.264879,53.3989086 124.189848,53.9050627 125.543598,55.6477333 C127.936033,58.7271547 129.618915,62.0518864 130.775127,63.0512989 C131.822898,63.9563387 134.405837,65.0005929 138.769254,65.0005929 C139.22236,65.0005929 139.69393,64.9891626 140.185723,64.965716 C140.185723,64.965716 139.1529,65.2497133 137.45214,65.577673 L137.407884,65.7482472 L137.240534,66.5381054 L136.931625,66.5105556 L137.001671,65.8150701 L137.015153,65.6603223 C136.887076,65.684062 136.755775,65.7078017 136.620957,65.7315415 L136.703313,65.7470748 L136.682797,65.8648941 L136.295049,68.072101 L135.9624,68.0682909 L136.02805,65.9627838 L136.032447,65.832362 C134.164336,66.1418574 131.800916,66.4372849 129.229115,66.5272614 C128.665223,66.5466048 128.118331,66.5644829 127.587264,66.5797232 L127.587264,66.5911534 L127.58111,67.1063931 L126.677828,67.0961352 L126.683397,66.6137208 L126.68369,66.6043422 C125.329354,66.6395121 124.087562,66.6582694 122.956556,66.6594417 L122.838443,66.6594417 C121.185163,66.6594417 119.769866,66.6210479 118.579656,66.5357608 C117.804745,66.4803681 117.125672,66.4047527 116.539214,66.3074492 C114.05475,65.8956678 110.974157,63.8561044 110.526326,62.7069265 C110.438401,62.4812528 110.368061,62.2397525 110.321168,61.9856497 C111.279549,63.0240422 113.581129,63.4314273 114.321749,63.5556945 C114.479428,63.5820719 114.668466,63.5940883 114.883589,63.5940883 C116.929893,63.5940883 121.320567,62.4903383 123.399697,62.1474314 C125.697173,61.7678891 126.59811,60.631607 126.59811,60.631607 C126.59811,60.631607 125.319683,59.2854775 124.594302,58.0929234 C123.868922,56.9006624 123.146766,55.4129739 121.825256,54.5835495 C121.356323,54.2892943 120.81031,54.1943354 120.301225,54.1943354 C120.228834,54.1943354 120.157614,54.1960939 120.087275,54.1993179 C120.515176,54.2224714 120.958024,54.3224126 121.346358,54.5633267 C122.615114,55.3493749 123.307962,56.7605688 124.004327,57.8904031 C124.700692,59.0208237 125.927829,60.2980787 125.927829,60.2980787 C125.927829,60.2980787 125.062942,61.374865 122.857787,61.7341846 C120.861893,62.0600927 116.647947,63.1063985 114.68312,63.1063985 C114.47679,63.1063985 114.295665,63.0949682 114.143848,63.0697631 C113.268995,62.9249802 110.121286,62.3731052 109.907628,60.7971988 C109.904404,60.773166 109.902353,60.7497193 109.900301,60.7262727 L109.739985,60.6981368 C109.666714,61.3988978 109.781017,62.0513002 110.005811,62.6099161 C110.383009,63.5466089 112.5231,65.0589163 114.707153,65.8517054 C114.707446,65.8517054 114.707446,65.8517054 114.707739,65.8522916 L114.273683,65.8660665 C114.179897,65.8695835 114.085231,65.8704627 113.989686,65.8704627 C112.56589,65.8704627 110.949831,65.535176 109.329962,64.895083 C108.948954,67.0679992 107.538933,69.8815945 103.925808,70.0172918 L95.7262289,70.0017584 C92.3962217,69.9956037 90.3247121,66.7435565 90.5325079,63.989164 C90.642707,62.531663 91.1605844,59.8810218 92.8261742,57.7673084 L84.405318,56.697556 C84.2452948,56.9534173 84.0316374,57.2356561 83.9053187,57.4806733 C83.598754,58.0765108 82.8455311,58.417073 82.8455311,58.417073 C82.8455311,58.417073 82.37103,58.4252793 81.8587212,58.4252793 C81.6330474,58.4252793 81.4000466,58.4238139 81.1969402,58.4194177 C80.5334006,58.4038843 80.4528028,57.981845 80.4528028,57.981845 L80.35081,56.2040045 L66.9446147,54.581791 C66.8520005,54.9176639 66.6178274,55.3775109 66.4566318,55.8244622 C66.167359,56.6260438 65.5829518,56.8874737 65.5829518,56.8874737 C65.5829518,56.8874737 65.3766215,56.8953869 65.0908658,56.8953869 C64.8660712,56.8953869 64.5917457,56.8906976 64.3306089,56.8725264 C63.7385815,56.832081 63.7441501,56.3517182 63.7441501,56.3517182 L63.7488394,54.2189544 C55.2828485,53.3253448 14.5235248,49.0179063 11.1199538,48.5718342 C10.434433,48.4818578 9.91450407,48.3775203 9.52235923,48.2673212 C9.4716559,48.266735 9.41714249,48.2629249 9.358819,48.2553048 C9.358819,48.2553048 7.61702768,48.1518465 7.17886884,46.5691992 C6.74129616,44.9865519 3.89311711,33.1635901 3.89311711,33.1635901 L4.38637553,33.5847501 L7.81603093,45.3731281 C7.81603093,45.3731281 7.88021607,46.9510861 9.04053104,47.1313321 C9.15688493,47.1492101 9.26386016,47.1764668 9.36145675,47.2104644 L12.8989666,47.5504405 L94.3285168,54.0466217 C94.3285168,54.0466217 95.1306846,54.0624482 96.4477988,54.0888256 C96.4806241,54.0779816 96.5146217,54.0683098 96.5494986,54.0592243 C97.6054761,53.7793301 98.6995543,53.5255204 99.7191895,53.5255204 C99.802425,53.5255204 99.8844882,53.5272789 99.9665514,53.5307959 C99.9829641,53.2892956 100.013738,52.993282 100.070889,52.6588744 C100.055649,52.657409 100.040701,52.6553575 100.025754,52.6530128 L100.018134,52.6697185 L69.0425017,49.250321 C68.714542,49.2160303 68.6483053,48.5563008 68.9967808,48.5563008 C68.9994185,48.5563008 69.0017632,48.5565939 69.0044009,48.5565939 L100.994393,49.993286 C101.193689,49.6354319 101.430793,49.2781639 101.712446,48.93174 C101.732669,48.9068279 101.753184,48.882209 101.7737,48.8572969 L101.758167,48.2679073 L101.727393,48.2939917 L100.971532,19.8327171 L101.002306,19.8025296 L100.991755,19.411557 C100.998203,19.397196 101.016081,19.3567506 101.047148,19.2975478 C101.164381,19.0715809 101.465377,18.5777364 101.982375,18.2538798 L101.976807,18.2201753 C102.100488,18.1442668 102.200136,18.1102692 102.281027,18.1102692 C102.367486,18.1102692 102.43255,18.1486631 102.483254,18.215486 C102.649725,18.4347119 102.659103,18.9593302 102.746735,19.4267974 C102.831729,19.8793173 104.259336,27.1378069 105.37012,32.7817031 C106.091104,36.4449456 106.678442,39.4276496 106.678442,39.4276496 C106.678442,39.4276496 106.787468,39.9765938 107.033658,40.6166867 C107.0234,40.6199106 107.013435,40.6231345 107.003177,40.6263584 C107.214783,41.1770611 107.528675,41.795759 107.964489,42.1964032 C108.662026,42.8356169 109.906456,43.8954044 110.492915,44.3915937 C110.516068,44.3836805 110.538929,44.3754741 110.562668,44.3675609 C110.576443,44.3625785 110.590511,44.3578892 110.604579,44.3529068 C110.604579,44.3529068 110.593149,44.3611131 110.572633,44.3760603 C110.563841,44.382215 110.553583,44.3895421 110.542153,44.3980415 C110.555048,44.3930591 110.567651,44.3880767 110.58084,44.3830943 C114.881537,42.6931786 120.831998,40.3801689 126.788614,38.0727277 C126.988496,37.9560807 127.19512,37.84764 127.407312,37.7476988 L127.403502,36.7717329 L127.727944,36.6146405 L127.929878,37.5252489 C128.160534,37.4367379 128.398518,37.3581917 128.642949,37.2899034 L128.659361,37.3482269 C129.869207,36.8798805 131.071726,36.4144649 132.253436,35.9575488 C132.201268,35.9540318 132.155254,35.9323437 132.15584,35.8851573 L132.159357,35.5996946 C132.160236,35.5217346 132.224421,35.4587218 132.301795,35.4587218 L132.303554,35.4587218 L132.921958,35.466342 C133.000211,35.4672212 133.119496,35.5563184 133.062638,35.6102456 L133.018089,35.6527426 C133.011935,35.6583112 133.00578,35.6638798 132.999332,35.6688622 C141.932497,32.215174 149.478501,29.31043 149.478501,29.31043 C149.478501,29.31043 150.038582,29.1102544 151.000773,28.7995866 C151.009273,28.7966558 151.017479,28.7943111 151.025978,28.7913803 C151.103059,28.7664682 151.18395,28.7406769 151.266013,28.7145926 C151.297959,28.7043347 151.328733,28.6943698 151.361265,28.6841119 C151.433364,28.6612515 151.5081,28.6375118 151.583715,28.6137721 C151.630901,28.5988248 151.678088,28.5838776 151.72674,28.5689304 C151.799131,28.5460699 151.872988,28.5232095 151.948603,28.4997628 C152.002824,28.482764 152.058216,28.4654721 152.114195,28.4484733 C152.188345,28.4256129 152.262788,28.4027524 152.339576,28.3793058 C152.402002,28.3599623 152.466188,28.3406189 152.530666,28.3209823 C152.606867,28.2978288 152.682483,28.2749683 152.761322,28.2512286 C152.830783,28.2304197 152.902588,28.2090247 152.974393,28.1876296 C153.050009,28.1650622 153.125038,28.1424949 153.203291,28.1193413 C153.287406,28.0944293 153.374744,28.0692241 153.461204,28.044019 C153.533302,28.0229171 153.603642,28.0021082 153.677206,27.9807131 C153.830195,27.9361645 153.986701,27.8913229 154.145845,27.8461881 C154.207979,27.8283101 154.27275,27.810432 154.336056,27.7925539 C154.441859,27.7626595 154.547955,27.732765 154.656396,27.7025775 C154.728787,27.6823548 154.802937,27.661839 154.876208,27.6419094 C154.979666,27.6131872 155.083417,27.5844651 155.18922,27.555743 C155.265422,27.5349341 155.342796,27.5141252 155.419876,27.4933164 C155.5248,27.4648873 155.630017,27.4367514 155.736699,27.4083223 C155.817297,27.3869273 155.897895,27.3658253 155.979078,27.3444303 C156.087226,27.3160012 156.195667,27.2875722 156.30528,27.2591432 C156.387343,27.2380412 156.469699,27.2166462 156.552935,27.1952511 C156.665478,27.1662359 156.779488,27.1375138 156.894083,27.1087917 C156.974974,27.0882759 157.055865,27.0680532 157.137928,27.0475374 C157.260437,27.0170567 157.384118,26.9865761 157.508385,26.9563886 C157.584293,26.9376313 157.659615,26.9191671 157.736403,26.9004098 C157.886755,26.8640675 158.039158,26.8280183 158.191854,26.7919691 C158.243143,26.7799527 158.293554,26.7676433 158.345136,26.7556269 C158.552053,26.7072682 158.760435,26.6592026 158.970575,26.6117232 C159.00721,26.6035169 159.044432,26.5956036 159.081067,26.5873973 C159.254572,26.5484173 159.428957,26.5097304 159.604806,26.4716296 C159.674267,26.4566824 159.744314,26.4417351 159.813774,26.4267879 C159.957678,26.3960142 160.101582,26.3652405 160.246365,26.3353461 C160.327549,26.3183473 160.409612,26.3019346 160.491089,26.2852289 C160.625907,26.257386 160.760725,26.2301293 160.896715,26.2031657 C160.983468,26.1858738 161.070514,26.168875 161.157266,26.1521693 C161.28974,26.126378 161.42192,26.1008798 161.554686,26.0759677 C161.64437,26.0589689 161.73376,26.0422632 161.823736,26.0255575 C161.957089,26.0009385 162.091028,25.9769057 162.224967,25.952873 C162.312599,25.9373396 162.40023,25.9218062 162.487862,25.9065659 C162.628249,25.88224 162.768636,25.8585003 162.909608,25.8350537 C162.991965,25.8212788 163.074028,25.8075039 163.15697,25.7940221 C163.311425,25.7688169 163.466173,25.7447841 163.621214,25.7210444 C163.689795,25.7104934 163.758376,25.6993563 163.827251,25.6890984 C164.05058,25.6553939 164.274788,25.6228617 164.498704,25.592088 C164.319337,25.602639 164.137919,25.6143623 163.954742,25.6266718 C165.426897,25.4074458 166.793542,25.2960743 167.972908,25.2456641 L167.976131,25.2456641 C168.166342,25.23482 168.354208,25.2283722 168.542954,25.220752 C168.65667,25.2163558 168.771851,25.2093218 168.884981,25.2058048 C169.1596,25.1975985 169.431874,25.1940815 169.702389,25.1934953 C169.728474,25.1934953 169.754851,25.192323 169.780936,25.192323 L169.781229,25.192323 C170.448578,25.192323 171.095119,25.2219244 171.724661,25.2732138 C171.877357,25.2828856 171.99547,25.2916781 172.071378,25.2975397 C173.90549,25.4414434 175.490189,25.666531 176.873247,25.9440805 L176.87354,25.9440805 C177.628522,26.0812432 178.302026,26.2257331 178.909001,26.3757915 C181.539712,27.0270216 182.908702,27.7849338 184.159873,28.5188132 C184.511865,28.7040416 184.841877,28.8839944 185.155768,29.0548617 C187.495742,30.3265482 188.878507,31.794014 188.966724,31.8886797 C188.969948,31.8916105 188.971414,31.893076 188.971414,31.893076 L189.004532,31.93909 L189.004239,31.9387969 L183.636427,30.9417291 L183.627634,30.9420221 L183.62529,30.9420221 L175.327235,31.1712129 C175.287669,30.9209202 175.245465,30.6638865 175.182452,30.4045082 L177.224947,30.1216833 C177.337784,30.106443 177.541476,29.9733834 177.460878,29.8913202 L176.975533,29.3939586 C176.903728,29.3206879 176.669555,29.2500549 176.539719,29.2500549 C176.524186,29.2500549 176.510118,29.2509342 176.498101,29.2529857 L174.87325,29.5457755 C174.402559,28.6181683 173.406663,27.7312996 171.048519,27.1087917 C168.068453,28.3089659 166.074317,30.4212139 164.75691,32.8640594 C162.770687,36.5457661 162.316116,40.9806956 162.337804,44.1849703 C162.339855,44.4721915 162.345424,44.7497409 162.353923,45.015274 C162.378249,45.7453433 162.471743,46.5372532 162.630007,47.3669707 L162.793841,47.3669707 C164.34249,47.3669707 165.884985,47.3748839 167.403448,47.3827972 C168.922203,47.3907104 170.415753,47.3986236 171.863582,47.3986236 C173.035621,47.3986236 174.177178,47.3933481 175.27829,47.378694 L175.286497,47.2391866 L175.571666,47.1802769 C175.59482,46.9833252 175.714691,46.8306291 175.869732,46.8194919 C175.875593,46.8191989 175.882041,46.8189058 175.887903,46.8189058 C176.064045,46.8189058 176.217621,47.0055995 176.235206,47.2459275 C176.238137,47.2863729 176.236964,47.3259391 176.232275,47.3637468 C177.583094,47.3379555 178.863573,47.2957516 180.053489,47.2283425 C180.030336,47.1081785 180.011285,46.9888938 179.996045,46.8704884 C179.812575,45.4499158 179.713806,43.518793 180.088659,41.6518553 C180.373536,40.2336274 180.931272,38.8520349 181.93215,37.7573705 C182.165737,37.5018023 182.423357,37.2620605 182.707354,37.0413691 C179.139364,36.022027 176.034737,35.4370337 176.034737,35.4370337 C176.034737,35.4370337 176.018031,35.335627 175.988137,35.1559672 L180.55935,34.8318176 L179.122072,34.4467068 L177.020375,34.5630606 L176.809648,34.504151 L176.913106,34.4367419 L175.215864,34.5108919 L174.527705,31.6424901 L183.544106,31.4030415 L185.101548,34.0791809 L181.098916,34.2538582 L181.209701,34.345007 L180.053782,34.3455932 C180.053782,34.3455932 181.088658,34.5768355 181.851845,34.7400827 L185.693575,34.4681018 L185.699144,34.4675156 L185.761277,34.4631194 L189.067838,35.1298829 L189.068131,35.1295898 L189.280909,34.8494026 L188.353009,34.6413138 L188.353595,34.5935413 L185.737538,34.0290637 L184.207352,31.5264293 L188.935365,32.3628878 L190.982255,35.1603635 L190.575749,35.0727317 L190.475808,35.1457093 L189.660158,34.9669288 L189.484016,35.2134115 L189.484016,35.2137045 L191.700601,35.6606559 L191.700894,35.6606559 L189.81432,33.0563218 L191.79175,35.7858022 C191.79175,35.7858022 193.315781,37.1111229 194.824278,38.7893152 C196.254229,40.3801689 197.670699,42.2884312 197.761554,43.6843848 C197.771812,43.8411841 197.776795,43.9968111 197.776795,44.1515588 C197.777967,46.8218366 196.315191,49.1278124 195.090983,50.8517257 C194.857983,51.1799784 194.485474,51.6409977 193.995147,52.1884765 C193.991337,52.1928727 193.987234,52.197269 193.98313,52.2016652 C193.931548,52.2596956 193.877621,52.3188984 193.823107,52.3789803 C193.798488,52.4056509 193.775921,52.4311491 193.751009,52.4581127 C193.749836,52.459285 193.749543,52.4601643 193.748371,52.4616297 C193.747492,52.4619228 193.746906,52.4625089 193.746319,52.4633882 C193.741337,52.4689568 193.735768,52.4745253 193.730786,52.4798008 C193.708512,52.5038336 193.685944,52.5284526 193.663377,52.5530715 C193.639344,52.5788628 193.614139,52.6055334 193.58952,52.6319108 C193.484303,52.7441616 193.37557,52.8593431 193.26244,52.9771624 C193.251596,52.9882996 193.241631,52.9991436 193.23108,53.0102808 C193.236062,53.0050053 193.240752,52.9997298 193.246027,52.9944543 C193.236941,53.0035399 193.228735,53.0126254 193.219943,53.021711 C193.221408,53.0202456 193.222873,53.0187802 193.224339,53.0173148 C193.216133,53.0258142 193.208219,53.0340205 193.200306,53.0425199 C193.075453,53.1711833 192.944152,53.3045359 192.810213,53.4387679 C192.771526,53.4774548 192.732839,53.5164348 192.693273,53.556001 C192.675688,53.5732929 192.659568,53.5897055 192.64169,53.6072905 C192.526802,53.7210067 192.408103,53.8370675 192.286767,53.9537144 C192.270354,53.969834 192.255407,53.9847812 192.238701,54.0006077 L204.26858,53.1459781 C204.26858,53.1459781 204.335696,53.1682524 204.435344,53.1682524 C204.684757,53.1682524 205.138449,53.0316758 205.260372,52.0762258 C205.430946,50.7380095 206.516525,41.7837426 206.516525,41.7837426 L207.393722,41.6914215 L208.923614,51.7069414 C208.923614,51.7069414 209.520624,53.5181933 207.868516,53.7558835 L207.868516,53.7558835 Z M193.224339,53.0173148 C193.22639,53.014677 193.228735,53.0123324 193.23108,53.0102808 C193.229321,53.0117462 193.227563,53.0137978 193.225511,53.0158493 C193.225218,53.0164355 193.224632,53.0167286 193.224339,53.0173148 L193.224339,53.0173148 Z" id="Fill-1" fill="#9B9B9B" fill-rule="nonzero" transform="translate(106.460903, 44.530808) rotate(-10.000000) translate(-106.460903, -44.530808) "></path>
        </g>
    </g>
</svg>